<svg width="201" height="51" viewBox="0 0 201 51" fill="none" xmlns="http://www.w3.org/2000/svg">
<path d="M73.2363 19.6211C73.873 20.1016 74.5645 20.3984 75.3105 20.5117V18.1387C74.5488 17.9941 74.0195 17.834 73.7227 17.6582C73.4258 17.4824 73.207 17.2891 73.0664 17.0781C72.9258 16.8633 72.8555 16.5996 72.8555 16.2871C72.8555 15.9707 72.9238 15.6914 73.0605 15.4492C73.2012 15.2031 73.3867 14.9922 73.6172 14.8164C74.0742 14.4688 74.6387 14.2617 75.3105 14.1953V13.3809H76.207V14.1953C77.0156 14.2773 77.7402 14.5234 78.3809 14.9336L77.9766 15.8828C77.4297 15.5547 76.8398 15.3301 76.207 15.209V17.3008C77.0273 17.4648 77.5879 17.6328 77.8887 17.8047C78.1934 17.9766 78.4219 18.1738 78.5742 18.3965C78.7266 18.6152 78.8027 18.8945 78.8027 19.2344C78.8027 19.875 78.5391 20.3984 78.0117 20.8047C77.543 21.168 76.9414 21.3965 76.207 21.4902V22.5625H75.3105V21.5195C74.5879 21.4727 73.8984 21.2734 73.2422 20.9219C73.0352 20.8125 72.8477 20.6914 72.6797 20.5586L73.2363 19.6211ZM75.3105 15.1738C74.7168 15.2441 74.3203 15.4414 74.1211 15.7656C74.0508 15.8828 74.0156 16.0176 74.0156 16.1699C74.0156 16.3223 74.0488 16.4473 74.1152 16.5449C74.1816 16.6426 74.2734 16.7266 74.3906 16.7969C74.5977 16.9297 74.9043 17.0391 75.3105 17.125V15.1738ZM76.207 20.5117C76.8594 20.4297 77.2969 20.1953 77.5195 19.8086C77.6016 19.668 77.6426 19.5137 77.6426 19.3457C77.6426 19.1777 77.6055 19.041 77.5312 18.9355C77.457 18.8301 77.3555 18.7383 77.2266 18.6602C77.0078 18.5312 76.668 18.418 76.207 18.3203V20.5117ZM79.998 19.0352L84.4922 13.7031H85.5762V19.0234H87.2168V20.0078H85.5762V22H84.4922V20.0078H80.3145L79.998 19.0352ZM84.4922 19.0234V15.0215L81.1992 19.0234H84.4922Z" fill="black"/>
<path d="M184.236 19.6211C184.873 20.1016 185.564 20.3984 186.311 20.5117V18.1387C185.549 17.9941 185.02 17.834 184.723 17.6582C184.426 17.4824 184.207 17.2891 184.066 17.0781C183.926 16.8633 183.855 16.5996 183.855 16.2871C183.855 15.9707 183.924 15.6914 184.061 15.4492C184.201 15.2031 184.387 14.9922 184.617 14.8164C185.074 14.4688 185.639 14.2617 186.311 14.1953V13.3809H187.207V14.1953C188.016 14.2773 188.74 14.5234 189.381 14.9336L188.977 15.8828C188.43 15.5547 187.84 15.3301 187.207 15.209V17.3008C188.027 17.4648 188.588 17.6328 188.889 17.8047C189.193 17.9766 189.422 18.1738 189.574 18.3965C189.727 18.6152 189.803 18.8945 189.803 19.2344C189.803 19.875 189.539 20.3984 189.012 20.8047C188.543 21.168 187.941 21.3965 187.207 21.4902V22.5625H186.311V21.5195C185.588 21.4727 184.898 21.2734 184.242 20.9219C184.035 20.8125 183.848 20.6914 183.68 20.5586L184.236 19.6211ZM186.311 15.1738C185.717 15.2441 185.32 15.4414 185.121 15.7656C185.051 15.8828 185.016 16.0176 185.016 16.1699C185.016 16.3223 185.049 16.4473 185.115 16.5449C185.182 16.6426 185.273 16.7266 185.391 16.7969C185.598 16.9297 185.904 17.0391 186.311 17.125V15.1738ZM187.207 20.5117C187.859 20.4297 188.297 20.1953 188.52 19.8086C188.602 19.668 188.643 19.5137 188.643 19.3457C188.643 19.1777 188.605 19.041 188.531 18.9355C188.457 18.8301 188.355 18.7383 188.227 18.6602C188.008 18.5312 187.668 18.418 187.207 18.3203V20.5117ZM190.998 19.0352L195.492 13.7031H196.576V19.0234H198.217V20.0078H196.576V22H195.492V20.0078H191.314L190.998 19.0352ZM195.492 19.0234V15.0215L192.199 19.0234H195.492Z" fill="black"/>
<path d="M78.0156 1.62891C77.4023 1.66797 76.8438 1.6875 76.3398 1.6875H73.3574V0.703125H79.1992V1.6875C78.5234 2.40234 77.8086 3.53516 77.0547 5.08594C76.293 6.66797 75.8242 7.97266 75.6484 9H74.4473C74.709 7.77734 75.2227 6.39453 75.9883 4.85156C76.7031 3.41406 77.3789 2.33984 78.0156 1.62891Z" fill="black"/>
<path d="M189.016 1.62891C188.402 1.66797 187.844 1.6875 187.34 1.6875H184.357V0.703125H190.199V1.6875C189.523 2.40234 188.809 3.53516 188.055 5.08594C187.293 6.66797 186.824 7.97266 186.648 9H185.447C185.709 7.77734 186.223 6.39453 186.988 4.85156C187.703 3.41406 188.379 2.33984 189.016 1.62891Z" fill="black"/>
<path d="M80.9727 48.5059C81.707 48.9238 82.4941 49.1328 83.334 49.1328C83.9434 49.1328 84.4453 48.9961 84.8398 48.7227C85.2617 48.4336 85.4727 48.0254 85.4727 47.498C85.4727 46.8613 85.082 46.4258 84.3008 46.1914C83.5312 45.9648 82.4707 45.9629 81.1191 46.1855V41.7031H86.1289V42.6875H82.2031V45.1074C83.4219 44.9434 84.4414 45.0391 85.2617 45.3945C86.1836 45.793 86.6445 46.4766 86.6445 47.4453C86.6445 48.3008 86.2773 48.9727 85.543 49.4609C84.8867 49.8984 84.0938 50.1172 83.1641 50.1172C82.1797 50.1172 81.3457 49.9043 80.6621 49.4785L80.9727 48.5059Z" fill="black"/>
<path d="M191.973 48.5059C192.707 48.9238 193.494 49.1328 194.334 49.1328C194.943 49.1328 195.445 48.9961 195.84 48.7227C196.262 48.4336 196.473 48.0254 196.473 47.498C196.473 46.8613 196.082 46.4258 195.301 46.1914C194.531 45.9648 193.471 45.9629 192.119 46.1855V41.7031H197.129V42.6875H193.203V45.1074C194.422 44.9434 195.441 45.0391 196.262 45.3945C197.184 45.793 197.645 46.4766 197.645 47.4453C197.645 48.3008 197.277 48.9727 196.543 49.4609C195.887 49.8984 195.094 50.1172 194.164 50.1172C193.18 50.1172 192.346 49.9043 191.662 49.4785L191.973 48.5059Z" fill="black"/>
<path d="M183.973 48.5059C184.707 48.9238 185.494 49.1328 186.334 49.1328C186.943 49.1328 187.445 48.9961 187.84 48.7227C188.262 48.4336 188.473 48.0254 188.473 47.498C188.473 46.8613 188.082 46.4258 187.301 46.1914C186.531 45.9648 185.471 45.9629 184.119 46.1855V41.7031H189.129V42.6875H185.203V45.1074C186.422 44.9434 187.441 45.0391 188.262 45.3945C189.184 45.793 189.645 46.4766 189.645 47.4453C189.645 48.3008 189.277 48.9727 188.543 49.4609C187.887 49.8984 187.094 50.1172 186.164 50.1172C185.18 50.1172 184.346 49.9043 183.662 49.4785L183.973 48.5059Z" fill="black"/>
<path d="M65.2129 32.0801H69.4434V32.9824H65.2129V32.0801ZM71.5234 35.0156L73.7207 33.1172C75.1504 31.8711 75.8652 30.875 75.8652 30.1289C75.8652 29.5859 75.7188 29.1914 75.4258 28.9453C75.1367 28.6953 74.6895 28.5703 74.084 28.5703C73.5918 28.5703 73 28.707 72.3086 28.9805C72.1367 29.0469 72.002 29.1055 71.9043 29.1562L71.6055 28.2246C72.1328 27.9551 72.7891 27.7617 73.5742 27.6445C73.8242 27.6055 74.1035 27.5859 74.4121 27.5859C74.7207 27.5859 75.043 27.6426 75.3789 27.7559C75.7188 27.8691 76.0098 28.0312 76.252 28.2422C76.7598 28.6836 77.0137 29.2891 77.0137 30.0586C77.0137 31.1094 76.2734 32.2578 74.793 33.5039L73.0469 34.9746L77.2305 34.9688V36H71.5234V35.0156ZM84.3672 32.2676C83.5938 32.709 82.7305 32.9297 81.7773 32.9297C80.9258 32.9297 80.2324 32.7266 79.6973 32.3203C79.1191 31.8906 78.8301 31.2832 78.8301 30.498C78.8301 29.6387 79.1543 28.9336 79.8027 28.3828C80.4316 27.8516 81.1992 27.5859 82.1055 27.5859C83.1875 27.5859 84.041 27.918 84.666 28.582C85.2832 29.2383 85.5918 30.1191 85.5918 31.2246C85.5918 33.5176 84.832 35.0195 83.3125 35.7305C82.707 36.0156 82.0195 36.1445 81.25 36.1172C80.5625 36.0898 79.9004 35.9375 79.2637 35.6602L79.5449 34.7285C80.752 35.2129 81.7793 35.2891 82.627 34.957C83.5762 34.582 84.1562 33.6855 84.3672 32.2676ZM84.4434 31.0781C84.4434 30.3242 84.2246 29.7168 83.7871 29.2559C83.3418 28.791 82.7461 28.5586 82 28.5586C81.4258 28.5586 80.9512 28.7148 80.5762 29.0273C80.1777 29.3594 79.9785 29.791 79.9785 30.3223C79.9785 30.8262 80.166 31.2266 80.541 31.5234C80.8965 31.8047 81.3438 31.9453 81.8828 31.9453C82.6172 31.9453 83.3066 31.7852 83.9512 31.4648C84.1426 31.3711 84.3066 31.2754 84.4434 31.1777V31.0781Z" fill="black"/>
<path d="M176.213 32.0801H180.443V32.9824H176.213V32.0801ZM182.523 35.0156L184.721 33.1172C186.15 31.8711 186.865 30.875 186.865 30.1289C186.865 29.5859 186.719 29.1914 186.426 28.9453C186.137 28.6953 185.689 28.5703 185.084 28.5703C184.592 28.5703 184 28.707 183.309 28.9805C183.137 29.0469 183.002 29.1055 182.904 29.1562L182.605 28.2246C183.133 27.9551 183.789 27.7617 184.574 27.6445C184.824 27.6055 185.104 27.5859 185.412 27.5859C185.721 27.5859 186.043 27.6426 186.379 27.7559C186.719 27.8691 187.01 28.0312 187.252 28.2422C187.76 28.6836 188.014 29.2891 188.014 30.0586C188.014 31.1094 187.273 32.2578 185.793 33.5039L184.047 34.9746L188.23 34.9688V36H182.523V35.0156ZM195.367 32.2676C194.594 32.709 193.73 32.9297 192.777 32.9297C191.926 32.9297 191.232 32.7266 190.697 32.3203C190.119 31.8906 189.83 31.2832 189.83 30.498C189.83 29.6387 190.154 28.9336 190.803 28.3828C191.432 27.8516 192.199 27.5859 193.105 27.5859C194.188 27.5859 195.041 27.918 195.666 28.582C196.283 29.2383 196.592 30.1191 196.592 31.2246C196.592 33.5176 195.832 35.0195 194.312 35.7305C193.707 36.0156 193.02 36.1445 192.25 36.1172C191.562 36.0898 190.9 35.9375 190.264 35.6602L190.545 34.7285C191.752 35.2129 192.779 35.2891 193.627 34.957C194.576 34.582 195.156 33.6855 195.367 32.2676ZM195.443 31.0781C195.443 30.3242 195.225 29.7168 194.787 29.2559C194.342 28.791 193.746 28.5586 193 28.5586C192.426 28.5586 191.951 28.7148 191.576 29.0273C191.178 29.3594 190.979 29.791 190.979 30.3223C190.979 30.8262 191.166 31.2266 191.541 31.5234C191.896 31.8047 192.344 31.9453 192.883 31.9453C193.617 31.9453 194.307 31.7852 194.951 31.4648C195.143 31.3711 195.307 31.2754 195.443 31.1777V31.0781Z" fill="black"/>
<line x1="89.5" y1="12" x2="89.5" y2="39" stroke="black"/>
<line x1="200.5" y1="12" x2="200.5" y2="39" stroke="black"/>
<line x1="90" y1="39.5" x2="63" y2="39.5" stroke="black"/>
<line x1="201" y1="39.5" x2="174" y2="39.5" stroke="black"/>
<path d="M2.83594 21.752L0.638672 22.9941L0.322266 22.0508L2.83594 20.7031H3.91992V29H2.83594V21.752ZM5.45508 26.0352L9.94922 20.7031H11.0332V26.0234H12.6738V27.0078H11.0332V29H9.94922V27.0078H5.77148L5.45508 26.0352ZM9.94922 26.0234V22.0215L6.65625 26.0234H9.94922ZM14.4082 25.0801H18.6387V25.9824H14.4082V25.0801ZM26.2383 25.2676C25.4648 25.709 24.6016 25.9297 23.6484 25.9297C22.7969 25.9297 22.1035 25.7266 21.5684 25.3203C20.9902 24.8906 20.7012 24.2832 20.7012 23.498C20.7012 22.6387 21.0254 21.9336 21.6738 21.3828C22.3027 20.8516 23.0703 20.5859 23.9766 20.5859C25.0586 20.5859 25.9121 20.918 26.5371 21.582C27.1543 22.2383 27.4629 23.1191 27.4629 24.2246C27.4629 26.5176 26.7031 28.0195 25.1836 28.7305C24.5781 29.0156 23.8906 29.1445 23.1211 29.1172C22.4336 29.0898 21.7715 28.9375 21.1348 28.6602L21.416 27.7285C22.623 28.2129 23.6504 28.2891 24.498 27.957C25.4473 27.582 26.0273 26.6855 26.2383 25.2676ZM26.3145 24.0781C26.3145 23.3242 26.0957 22.7168 25.6582 22.2559C25.2129 21.791 24.6172 21.5586 23.8711 21.5586C23.2969 21.5586 22.8223 21.7148 22.4473 22.0273C22.0488 22.3594 21.8496 22.791 21.8496 23.3223C21.8496 23.8262 22.0371 24.2266 22.4121 24.5234C22.7676 24.8047 23.2148 24.9453 23.7539 24.9453C24.4883 24.9453 25.1777 24.7852 25.8223 24.4648C26.0137 24.3711 26.1777 24.2754 26.3145 24.1777V24.0781ZM29.373 24.1426H34.7754V25.0449H29.373V24.1426ZM29.373 26.4863H34.7754V27.3887H29.373V26.4863ZM36.9609 27.5059C37.6953 27.9238 38.4824 28.1328 39.3223 28.1328C39.9316 28.1328 40.4336 27.9961 40.8281 27.7227C41.25 27.4336 41.4609 27.0254 41.4609 26.498C41.4609 25.8613 41.0703 25.4258 40.2891 25.1914C39.5195 24.9648 38.459 24.9629 37.1074 25.1855V20.7031H42.1172V21.6875H38.1914V24.1074C39.4102 23.9434 40.4297 24.0391 41.25 24.3945C42.1719 24.793 42.6328 25.4766 42.6328 26.4453C42.6328 27.3008 42.2656 27.9727 41.5312 28.4609C40.875 28.8984 40.082 29.1172 39.1523 29.1172C38.168 29.1172 37.334 28.9043 36.6504 28.4785L36.9609 27.5059Z" fill="black"/>
<path d="M121.016 21.6289C120.402 21.668 119.844 21.6875 119.34 21.6875H116.357V20.7031H122.199V21.6875C121.523 22.4023 120.809 23.5352 120.055 25.0859C119.293 26.668 118.824 27.9727 118.648 29H117.447C117.709 27.7773 118.223 26.3945 118.988 24.8516C119.703 23.4141 120.379 22.3398 121.016 21.6289ZM123.693 25.0801H127.924V25.9824H123.693V25.0801ZM130.004 28.0156L132.201 26.1172C133.631 24.8711 134.346 23.875 134.346 23.1289C134.346 22.5859 134.199 22.1914 133.906 21.9453C133.617 21.6953 133.17 21.5703 132.564 21.5703C132.072 21.5703 131.48 21.707 130.789 21.9805C130.617 22.0469 130.482 22.1055 130.385 22.1562L130.086 21.2246C130.613 20.9551 131.27 20.7617 132.055 20.6445C132.305 20.6055 132.584 20.5859 132.893 20.5859C133.201 20.5859 133.523 20.6426 133.859 20.7559C134.199 20.8691 134.49 21.0312 134.732 21.2422C135.24 21.6836 135.494 22.2891 135.494 23.0586C135.494 24.1094 134.754 25.2578 133.273 26.5039L131.527 27.9746L135.711 27.9688V29H130.004V28.0156ZM137.674 24.1426H143.076V25.0449H137.674V24.1426ZM137.674 26.4863H143.076V27.3887H137.674V26.4863ZM145.262 27.5059C145.996 27.9238 146.783 28.1328 147.623 28.1328C148.232 28.1328 148.734 27.9961 149.129 27.7227C149.551 27.4336 149.762 27.0254 149.762 26.498C149.762 25.8613 149.371 25.4258 148.59 25.1914C147.82 24.9648 146.76 24.9629 145.408 25.1855V20.7031H150.418V21.6875H146.492V24.1074C147.711 23.9434 148.73 24.0391 149.551 24.3945C150.473 24.793 150.934 25.4766 150.934 26.4453C150.934 27.3008 150.566 27.9727 149.832 28.4609C149.176 28.8984 148.383 29.1172 147.453 29.1172C146.469 29.1172 145.635 28.9043 144.951 28.4785L145.262 27.5059Z" fill="black"/>
<path d="M110.707 25.7071C111.098 25.3166 111.098 24.6834 110.707 24.2929L104.343 17.9289C103.953 17.5384 103.319 17.5384 102.929 17.9289C102.538 18.3195 102.538 18.9526 102.929 19.3431L108.586 25L102.929 30.6569C102.538 31.0474 102.538 31.6805 102.929 32.0711C103.319 32.4616 103.953 32.4616 104.343 32.0711L110.707 25.7071ZM95 26H110V24H95V26Z" fill="#827373"/>
<path d="M61.7071 25.7071C62.0976 25.3166 62.0976 24.6834 61.7071 24.2929L55.3431 17.9289C54.9526 17.5384 54.3195 17.5384 53.9289 17.9289C53.5384 18.3195 53.5384 18.9526 53.9289 19.3431L59.5858 25L53.9289 30.6569C53.5384 31.0474 53.5384 31.6805 53.9289 32.0711C54.3195 32.4616 54.9526 32.4616 55.3431 32.0711L61.7071 25.7071ZM46 26H61V24H46V26Z" fill="#827373"/>
<path d="M173.707 25.7071C174.098 25.3166 174.098 24.6834 173.707 24.2929L167.343 17.9289C166.953 17.5384 166.319 17.5384 165.929 17.9289C165.538 18.3195 165.538 18.9526 165.929 19.3431L171.586 25L165.929 30.6569C165.538 31.0474 165.538 31.6805 165.929 32.0711C166.319 32.4616 166.953 32.4616 167.343 32.0711L173.707 25.7071ZM158 26H173V24H158V26Z" fill="#827373"/>
</svg>
