<svg width="79" height="48" viewBox="0 0 79 48" fill="none" xmlns="http://www.w3.org/2000/svg">
<path d="M0.972656 9.50586C1.70703 9.92383 2.49414 10.1328 3.33398 10.1328C3.94336 10.1328 4.44531 9.99609 4.83984 9.72266C5.26172 9.43359 5.47266 9.02539 5.47266 8.49805C5.47266 7.86133 5.08203 7.42578 4.30078 7.19141C3.53125 6.96484 2.4707 6.96289 1.11914 7.18555V2.70312H6.12891V3.6875H2.20312V6.10742C3.42188 5.94336 4.44141 6.03906 5.26172 6.39453C6.18359 6.79297 6.64453 7.47656 6.64453 8.44531C6.64453 9.30078 6.27734 9.97266 5.54297 10.4609C4.88672 10.8984 4.09375 11.1172 3.16406 11.1172C2.17969 11.1172 1.3457 10.9043 0.662109 10.4785L0.972656 9.50586ZM7.9043 8.03516L12.3984 2.70312H13.4824V8.02344H15.123V9.00781H13.4824V11H12.3984V9.00781H8.2207L7.9043 8.03516ZM12.3984 8.02344V4.02148L9.10547 8.02344H12.3984ZM16.8574 7.40234H19.0137V5.14062H20.0977V7.40234H22.2598V8.38672H20.0977V10.6484H19.0137V8.38672H16.8574V7.40234ZM26.9707 6.81641L23.748 2.70312H25.1719L27.6797 5.9082L30.1699 2.70312H31.4648L28.3301 6.73438L31.6758 11H30.252L27.6211 7.64844L25.0195 11H23.7246L26.9707 6.81641ZM33.1465 6.14258H38.5488V7.04492H33.1465V6.14258ZM33.1465 8.48633H38.5488V9.38867H33.1465V8.48633ZM41.7949 6.43555C42.5684 5.99414 43.4316 5.77344 44.3848 5.77344C45.2363 5.77344 45.9297 5.97656 46.4648 6.38281C47.043 6.8125 47.332 7.41992 47.332 8.20508C47.332 9.06445 47.0078 9.76953 46.3594 10.3203C45.7305 10.8516 44.9629 11.1172 44.0566 11.1172C42.9746 11.1172 42.1211 10.7852 41.4961 10.1211C40.8789 9.46484 40.5703 8.58398 40.5703 7.47852C40.5703 5.18555 41.3301 3.68359 42.8496 2.97266C43.4551 2.6875 44.1426 2.55859 44.9121 2.58594C45.5996 2.61328 46.2617 2.76563 46.8984 3.04297L46.6172 3.97461C45.4102 3.49023 44.3828 3.41406 43.5352 3.74609C42.5859 4.12109 42.0059 5.01758 41.7949 6.43555ZM41.7188 7.625C41.7188 8.37891 41.9375 8.98633 42.375 9.44727C42.8203 9.91211 43.416 10.1445 44.1621 10.1445C44.7363 10.1445 45.2109 9.98828 45.5859 9.67578C45.9844 9.34375 46.1836 8.91211 46.1836 8.38086C46.1836 7.87695 45.9961 7.47656 45.6211 7.17969C45.2656 6.89844 44.8184 6.75781 44.2793 6.75781C43.5449 6.75781 42.8555 6.91797 42.2109 7.23828C42.0195 7.33203 41.8555 7.42773 41.7188 7.52539V7.625ZM49.7344 10.5195C49.4531 10.3164 49.2285 10.0625 49.0605 9.75781C48.8965 9.44922 48.8145 9.13477 48.8145 8.81445C48.8145 8.49023 48.8535 8.22461 48.9316 8.01758C49.0137 7.80664 49.1211 7.61328 49.2539 7.4375C49.5352 7.07422 49.8848 6.82031 50.3027 6.67578V6.64062C49.959 6.54297 49.668 6.33203 49.4297 6.00781C49.1797 5.67188 49.0547 5.31055 49.0547 4.92383C49.0547 4.5332 49.1387 4.19727 49.3066 3.91602C49.4746 3.63086 49.6953 3.39062 49.9688 3.19531C50.5352 2.78906 51.2148 2.58594 52.0078 2.58594C52.8125 2.58594 53.4805 2.77344 54.0117 3.14844C54.5781 3.55469 54.8613 4.09766 54.8613 4.77734C54.8613 5.40234 54.6055 5.91016 54.0938 6.30078C53.9219 6.42969 53.7227 6.5332 53.4961 6.61133V6.64062C54.2773 6.85938 54.7852 7.29102 55.0195 7.93555C55.0938 8.14648 55.1309 8.38086 55.1309 8.63867C55.1309 8.89258 55.0879 9.13281 55.002 9.35938C54.916 9.58594 54.7969 9.79297 54.6445 9.98047C54.4961 10.1641 54.3184 10.3262 54.1113 10.4668C53.9082 10.6074 53.6875 10.7266 53.4492 10.8242C52.9727 11.0195 52.4922 11.1172 52.0078 11.1172C51.5234 11.1172 51.0938 11.0684 50.7188 10.9707C50.3477 10.8691 50.0195 10.7188 49.7344 10.5195ZM50.7012 5.92578C50.8613 6.04297 51.0527 6.12891 51.2754 6.18359C51.498 6.23828 51.7246 6.26562 51.9551 6.26562C52.1895 6.26562 52.4082 6.23242 52.6113 6.16602C52.8145 6.0957 52.998 5.99805 53.1621 5.87305C53.5293 5.5918 53.7129 5.25 53.7129 4.84766C53.7129 4.43359 53.5352 4.11133 53.1797 3.88086C52.8594 3.67383 52.4336 3.57031 51.9023 3.57031C51.168 3.57031 50.6504 3.79492 50.3496 4.24414C50.248 4.39648 50.1973 4.58984 50.1973 4.82422C50.1973 5.05859 50.2402 5.27148 50.3262 5.46289C50.416 5.65039 50.541 5.80469 50.7012 5.92578ZM50.127 7.98242C50.0059 8.1582 49.9453 8.37305 49.9453 8.62695C49.9453 8.87695 50.002 9.0957 50.1152 9.2832C50.2285 9.4707 50.3789 9.62891 50.5664 9.75781C50.9453 10.0078 51.4258 10.1328 52.0078 10.1328C52.8867 10.1328 53.4844 9.86523 53.8008 9.33008C53.9062 9.14648 53.959 8.92969 53.959 8.67969C53.959 8.42578 53.8984 8.20898 53.7773 8.0293C53.6562 7.8457 53.498 7.69531 53.3027 7.57812C52.9199 7.34766 52.4531 7.23242 51.9023 7.23242C51.0625 7.23242 50.4707 7.48242 50.127 7.98242Z" fill="black"/>
<path d="M27.498 23.8164L24.2754 19.7031H25.6992L28.207 22.9082L30.6973 19.7031H31.9922L28.8574 23.7344L32.2031 28H30.7793L28.1484 24.6484L25.5469 28H24.252L27.498 23.8164ZM33.6738 23.1426H39.0762V24.0449H33.6738V23.1426ZM33.6738 25.4863H39.0762V26.3887H33.6738V25.4863ZM42.3223 23.4355C43.0957 22.9941 43.959 22.7734 44.9121 22.7734C45.7637 22.7734 46.457 22.9766 46.9922 23.3828C47.5703 23.8125 47.8594 24.4199 47.8594 25.2051C47.8594 26.0645 47.5352 26.7695 46.8867 27.3203C46.2578 27.8516 45.4902 28.1172 44.584 28.1172C43.502 28.1172 42.6484 27.7852 42.0234 27.1211C41.4062 26.4648 41.0977 25.584 41.0977 24.4785C41.0977 22.1855 41.8574 20.6836 43.377 19.9727C43.9824 19.6875 44.6699 19.5586 45.4395 19.5859C46.127 19.6133 46.7891 19.7656 47.4258 20.043L47.1445 20.9746C45.9375 20.4902 44.9102 20.4141 44.0625 20.7461C43.1133 21.1211 42.5332 22.0176 42.3223 23.4355ZM42.2461 24.625C42.2461 25.3789 42.4648 25.9863 42.9023 26.4473C43.3477 26.9121 43.9434 27.1445 44.6895 27.1445C45.2637 27.1445 45.7383 26.9883 46.1133 26.6758C46.5117 26.3438 46.7109 25.9121 46.7109 25.3809C46.7109 24.877 46.5234 24.4766 46.1484 24.1797C45.793 23.8984 45.3457 23.7578 44.8066 23.7578C44.0723 23.7578 43.3828 23.918 42.7383 24.2383C42.5469 24.332 42.3828 24.4277 42.2461 24.5254V24.625ZM50.2617 27.5195C49.9805 27.3164 49.7559 27.0625 49.5879 26.7578C49.4238 26.4492 49.3418 26.1348 49.3418 25.8145C49.3418 25.4902 49.3809 25.2246 49.459 25.0176C49.541 24.8066 49.6484 24.6133 49.7812 24.4375C50.0625 24.0742 50.4121 23.8203 50.8301 23.6758V23.6406C50.4863 23.543 50.1953 23.332 49.957 23.0078C49.707 22.6719 49.582 22.3105 49.582 21.9238C49.582 21.5332 49.666 21.1973 49.834 20.916C50.002 20.6309 50.2227 20.3906 50.4961 20.1953C51.0625 19.7891 51.7422 19.5859 52.5352 19.5859C53.3398 19.5859 54.0078 19.7734 54.5391 20.1484C55.1055 20.5547 55.3887 21.0977 55.3887 21.7773C55.3887 22.4023 55.1328 22.9102 54.6211 23.3008C54.4492 23.4297 54.25 23.5332 54.0234 23.6113V23.6406C54.8047 23.8594 55.3125 24.291 55.5469 24.9355C55.6211 25.1465 55.6582 25.3809 55.6582 25.6387C55.6582 25.8926 55.6152 26.1328 55.5293 26.3594C55.4434 26.5859 55.3242 26.793 55.1719 26.9805C55.0234 27.1641 54.8457 27.3262 54.6387 27.4668C54.4355 27.6074 54.2148 27.7266 53.9766 27.8242C53.5 28.0195 53.0195 28.1172 52.5352 28.1172C52.0508 28.1172 51.6211 28.0684 51.2461 27.9707C50.875 27.8691 50.5469 27.7188 50.2617 27.5195ZM51.2285 22.9258C51.3887 23.043 51.5801 23.1289 51.8027 23.1836C52.0254 23.2383 52.252 23.2656 52.4824 23.2656C52.7168 23.2656 52.9355 23.2324 53.1387 23.166C53.3418 23.0957 53.5254 22.998 53.6895 22.873C54.0566 22.5918 54.2402 22.25 54.2402 21.8477C54.2402 21.4336 54.0625 21.1113 53.707 20.8809C53.3867 20.6738 52.9609 20.5703 52.4297 20.5703C51.6953 20.5703 51.1777 20.7949 50.877 21.2441C50.7754 21.3965 50.7246 21.5898 50.7246 21.8242C50.7246 22.0586 50.7676 22.2715 50.8535 22.4629C50.9434 22.6504 51.0684 22.8047 51.2285 22.9258ZM50.6543 24.9824C50.5332 25.1582 50.4727 25.373 50.4727 25.627C50.4727 25.877 50.5293 26.0957 50.6426 26.2832C50.7559 26.4707 50.9062 26.6289 51.0938 26.7578C51.4727 27.0078 51.9531 27.1328 52.5352 27.1328C53.4141 27.1328 54.0117 26.8652 54.3281 26.3301C54.4336 26.1465 54.4863 25.9297 54.4863 25.6797C54.4863 25.4258 54.4258 25.209 54.3047 25.0293C54.1836 24.8457 54.0254 24.6953 53.8301 24.5781C53.4473 24.3477 52.9805 24.2324 52.4297 24.2324C51.5898 24.2324 50.998 24.4824 50.6543 24.9824ZM57.6152 24.0801H61.8457V24.9824H57.6152V24.0801ZM64.0312 26.5059C64.7656 26.9238 65.5527 27.1328 66.3926 27.1328C67.002 27.1328 67.5039 26.9961 67.8984 26.7227C68.3203 26.4336 68.5312 26.0254 68.5312 25.498C68.5312 24.8613 68.1406 24.4258 67.3594 24.1914C66.5898 23.9648 65.5293 23.9629 64.1777 24.1855V19.7031H69.1875V20.6875H65.2617V23.1074C66.4805 22.9434 67.5 23.0391 68.3203 23.3945C69.2422 23.793 69.7031 24.4766 69.7031 25.4453C69.7031 26.3008 69.3359 26.9727 68.6016 27.4609C67.9453 27.8984 67.1523 28.1172 66.2227 28.1172C65.2383 28.1172 64.4043 27.9043 63.7207 27.4785L64.0312 26.5059ZM70.9629 25.0352L75.457 19.7031H76.541V25.0234H78.1816V26.0078H76.541V28H75.457V26.0078H71.2793L70.9629 25.0352ZM75.457 25.0234V21.0215L72.1641 25.0234H75.457Z" fill="black"/>
<path d="M28.498 40.8164L25.2754 36.7031H26.6992L29.207 39.9082L31.6973 36.7031H32.9922L29.8574 40.7344L33.2031 45H31.7793L29.1484 41.6484L26.5469 45H25.252L28.498 40.8164ZM34.6738 40.1426H40.0762V41.0449H34.6738V40.1426ZM34.6738 42.4863H40.0762V43.3887H34.6738V42.4863ZM44.125 37.752L41.9277 38.9941L41.6113 38.0508L44.125 36.7031H45.209V45H44.125V37.752ZM46.7441 42.0352L51.2383 36.7031H52.3223V42.0234H53.9629V43.0078H52.3223V45H51.2383V43.0078H47.0605L46.7441 42.0352ZM51.2383 42.0234V38.0215L47.9453 42.0234H51.2383Z" fill="black"/>
</svg>
