<svg width="243" height="55" viewBox="0 0 243 55" fill="none" xmlns="http://www.w3.org/2000/svg">
<path d="M90.2363 21.6211C90.873 22.1016 91.5645 22.3984 92.3105 22.5117V20.1387C91.5488 19.9941 91.0195 19.834 90.7227 19.6582C90.4258 19.4824 90.207 19.2891 90.0664 19.0781C89.9258 18.8633 89.8555 18.5996 89.8555 18.2871C89.8555 17.9707 89.9238 17.6914 90.0605 17.4492C90.2012 17.2031 90.3867 16.9922 90.6172 16.8164C91.0742 16.4688 91.6387 16.2617 92.3105 16.1953V15.3809H93.207V16.1953C94.0156 16.2773 94.7402 16.5234 95.3809 16.9336L94.9766 17.8828C94.4297 17.5547 93.8398 17.3301 93.207 17.209V19.3008C94.0273 19.4648 94.5879 19.6328 94.8887 19.8047C95.1934 19.9766 95.4219 20.1738 95.5742 20.3965C95.7266 20.6152 95.8027 20.8945 95.8027 21.2344C95.8027 21.875 95.5391 22.3984 95.0117 22.8047C94.543 23.168 93.9414 23.3965 93.207 23.4902V24.5625H92.3105V23.5195C91.5879 23.4727 90.8984 23.2734 90.2422 22.9219C90.0352 22.8125 89.8477 22.6914 89.6797 22.5586L90.2363 21.6211ZM92.3105 17.1738C91.7168 17.2441 91.3203 17.4414 91.1211 17.7656C91.0508 17.8828 91.0156 18.0176 91.0156 18.1699C91.0156 18.3223 91.0488 18.4473 91.1152 18.5449C91.1816 18.6426 91.2734 18.7266 91.3906 18.7969C91.5977 18.9297 91.9043 19.0391 92.3105 19.125V17.1738ZM93.207 22.5117C93.8594 22.4297 94.2969 22.1953 94.5195 21.8086C94.6016 21.668 94.6426 21.5137 94.6426 21.3457C94.6426 21.1777 94.6055 21.041 94.5312 20.9355C94.457 20.8301 94.3555 20.7383 94.2266 20.6602C94.0078 20.5312 93.668 20.418 93.207 20.3203V22.5117ZM96.998 21.0352L101.492 15.7031H102.576V21.0234H104.217V22.0078H102.576V24H101.492V22.0078H97.3145L96.998 21.0352ZM101.492 21.0234V17.0215L98.1992 21.0234H101.492Z" fill="black"/>
<path d="M226.236 21.6211C226.873 22.1016 227.564 22.3984 228.311 22.5117V20.1387C227.549 19.9941 227.02 19.834 226.723 19.6582C226.426 19.4824 226.207 19.2891 226.066 19.0781C225.926 18.8633 225.855 18.5996 225.855 18.2871C225.855 17.9707 225.924 17.6914 226.061 17.4492C226.201 17.2031 226.387 16.9922 226.617 16.8164C227.074 16.4688 227.639 16.2617 228.311 16.1953V15.3809H229.207V16.1953C230.016 16.2773 230.74 16.5234 231.381 16.9336L230.977 17.8828C230.43 17.5547 229.84 17.3301 229.207 17.209V19.3008C230.027 19.4648 230.588 19.6328 230.889 19.8047C231.193 19.9766 231.422 20.1738 231.574 20.3965C231.727 20.6152 231.803 20.8945 231.803 21.2344C231.803 21.875 231.539 22.3984 231.012 22.8047C230.543 23.168 229.941 23.3965 229.207 23.4902V24.5625H228.311V23.5195C227.588 23.4727 226.898 23.2734 226.242 22.9219C226.035 22.8125 225.848 22.6914 225.68 22.5586L226.236 21.6211ZM228.311 17.1738C227.717 17.2441 227.32 17.4414 227.121 17.7656C227.051 17.8828 227.016 18.0176 227.016 18.1699C227.016 18.3223 227.049 18.4473 227.115 18.5449C227.182 18.6426 227.273 18.7266 227.391 18.7969C227.598 18.9297 227.904 19.0391 228.311 19.125V17.1738ZM229.207 22.5117C229.859 22.4297 230.297 22.1953 230.52 21.8086C230.602 21.668 230.643 21.5137 230.643 21.3457C230.643 21.1777 230.605 21.041 230.531 20.9355C230.457 20.8301 230.355 20.7383 230.227 20.6602C230.008 20.5312 229.668 20.418 229.207 20.3203V22.5117ZM232.998 21.0352L237.492 15.7031H238.576V21.0234H240.217V22.0078H238.576V24H237.492V22.0078H233.314L232.998 21.0352ZM237.492 21.0234V17.0215L234.199 21.0234H237.492Z" fill="black"/>
<path d="M95.0156 3.62891C94.4023 3.66797 93.8438 3.6875 93.3398 3.6875H90.3574V2.70312H96.1992V3.6875C95.5234 4.40234 94.8086 5.53516 94.0547 7.08594C93.293 8.66797 92.8242 9.97266 92.6484 11H91.4473C91.709 9.77734 92.2227 8.39453 92.9883 6.85156C93.7031 5.41406 94.3789 4.33984 95.0156 3.62891Z" fill="black"/>
<path d="M231.016 3.62891C230.402 3.66797 229.844 3.6875 229.34 3.6875H226.357V2.70312H232.199V3.6875C231.523 4.40234 230.809 5.53516 230.055 7.08594C229.293 8.66797 228.824 9.97266 228.648 11H227.447C227.709 9.77734 228.223 8.39453 228.988 6.85156C229.703 5.41406 230.379 4.33984 231.016 3.62891Z" fill="black"/>
<path d="M97.9727 50.5059C98.707 50.9238 99.4941 51.1328 100.334 51.1328C100.943 51.1328 101.445 50.9961 101.84 50.7227C102.262 50.4336 102.473 50.0254 102.473 49.498C102.473 48.8613 102.082 48.4258 101.301 48.1914C100.531 47.9648 99.4707 47.9629 98.1191 48.1855V43.7031H103.129V44.6875H99.2031V47.1074C100.422 46.9434 101.441 47.0391 102.262 47.3945C103.184 47.793 103.645 48.4766 103.645 49.4453C103.645 50.3008 103.277 50.9727 102.543 51.4609C101.887 51.8984 101.094 52.1172 100.164 52.1172C99.1797 52.1172 98.3457 51.9043 97.6621 51.4785L97.9727 50.5059Z" fill="black"/>
<path d="M233.973 50.5059C234.707 50.9238 235.494 51.1328 236.334 51.1328C236.943 51.1328 237.445 50.9961 237.84 50.7227C238.262 50.4336 238.473 50.0254 238.473 49.498C238.473 48.8613 238.082 48.4258 237.301 48.1914C236.531 47.9648 235.471 47.9629 234.119 48.1855V43.7031H239.129V44.6875H235.203V47.1074C236.422 46.9434 237.441 47.0391 238.262 47.3945C239.184 47.793 239.645 48.4766 239.645 49.4453C239.645 50.3008 239.277 50.9727 238.543 51.4609C237.887 51.8984 237.094 52.1172 236.164 52.1172C235.18 52.1172 234.346 51.9043 233.662 51.4785L233.973 50.5059Z" fill="black"/>
<path d="M225.973 50.5059C226.707 50.9238 227.494 51.1328 228.334 51.1328C228.943 51.1328 229.445 50.9961 229.84 50.7227C230.262 50.4336 230.473 50.0254 230.473 49.498C230.473 48.8613 230.082 48.4258 229.301 48.1914C228.531 47.9648 227.471 47.9629 226.119 48.1855V43.7031H231.129V44.6875H227.203V47.1074C228.422 46.9434 229.441 47.0391 230.262 47.3945C231.184 47.793 231.645 48.4766 231.645 49.4453C231.645 50.3008 231.277 50.9727 230.543 51.4609C229.887 51.8984 229.094 52.1172 228.164 52.1172C227.18 52.1172 226.346 51.9043 225.662 51.4785L225.973 50.5059Z" fill="black"/>
<path d="M82.2129 34.0801H86.4434V34.9824H82.2129V34.0801ZM88.5234 37.0156L90.7207 35.1172C92.1504 33.8711 92.8652 32.875 92.8652 32.1289C92.8652 31.5859 92.7188 31.1914 92.4258 30.9453C92.1367 30.6953 91.6895 30.5703 91.084 30.5703C90.5918 30.5703 90 30.707 89.3086 30.9805C89.1367 31.0469 89.002 31.1055 88.9043 31.1562L88.6055 30.2246C89.1328 29.9551 89.7891 29.7617 90.5742 29.6445C90.8242 29.6055 91.1035 29.5859 91.4121 29.5859C91.7207 29.5859 92.043 29.6426 92.3789 29.7559C92.7188 29.8691 93.0098 30.0312 93.252 30.2422C93.7598 30.6836 94.0137 31.2891 94.0137 32.0586C94.0137 33.1094 93.2734 34.2578 91.793 35.5039L90.0469 36.9746L94.2305 36.9688V38H88.5234V37.0156ZM101.367 34.2676C100.594 34.709 99.7305 34.9297 98.7773 34.9297C97.9258 34.9297 97.2324 34.7266 96.6973 34.3203C96.1191 33.8906 95.8301 33.2832 95.8301 32.498C95.8301 31.6387 96.1543 30.9336 96.8027 30.3828C97.4316 29.8516 98.1992 29.5859 99.1055 29.5859C100.188 29.5859 101.041 29.918 101.666 30.582C102.283 31.2383 102.592 32.1191 102.592 33.2246C102.592 35.5176 101.832 37.0195 100.312 37.7305C99.707 38.0156 99.0195 38.1445 98.25 38.1172C97.5625 38.0898 96.9004 37.9375 96.2637 37.6602L96.5449 36.7285C97.752 37.2129 98.7793 37.2891 99.627 36.957C100.576 36.582 101.156 35.6855 101.367 34.2676ZM101.443 33.0781C101.443 32.3242 101.225 31.7168 100.787 31.2559C100.342 30.791 99.7461 30.5586 99 30.5586C98.4258 30.5586 97.9512 30.7148 97.5762 31.0273C97.1777 31.3594 96.9785 31.791 96.9785 32.3223C96.9785 32.8262 97.166 33.2266 97.541 33.5234C97.8965 33.8047 98.3438 33.9453 98.8828 33.9453C99.6172 33.9453 100.307 33.7852 100.951 33.4648C101.143 33.3711 101.307 33.2754 101.443 33.1777V33.0781Z" fill="black"/>
<path d="M218.213 34.0801H222.443V34.9824H218.213V34.0801ZM224.523 37.0156L226.721 35.1172C228.15 33.8711 228.865 32.875 228.865 32.1289C228.865 31.5859 228.719 31.1914 228.426 30.9453C228.137 30.6953 227.689 30.5703 227.084 30.5703C226.592 30.5703 226 30.707 225.309 30.9805C225.137 31.0469 225.002 31.1055 224.904 31.1562L224.605 30.2246C225.133 29.9551 225.789 29.7617 226.574 29.6445C226.824 29.6055 227.104 29.5859 227.412 29.5859C227.721 29.5859 228.043 29.6426 228.379 29.7559C228.719 29.8691 229.01 30.0312 229.252 30.2422C229.76 30.6836 230.014 31.2891 230.014 32.0586C230.014 33.1094 229.273 34.2578 227.793 35.5039L226.047 36.9746L230.23 36.9688V38H224.523V37.0156ZM237.367 34.2676C236.594 34.709 235.73 34.9297 234.777 34.9297C233.926 34.9297 233.232 34.7266 232.697 34.3203C232.119 33.8906 231.83 33.2832 231.83 32.498C231.83 31.6387 232.154 30.9336 232.803 30.3828C233.432 29.8516 234.199 29.5859 235.105 29.5859C236.188 29.5859 237.041 29.918 237.666 30.582C238.283 31.2383 238.592 32.1191 238.592 33.2246C238.592 35.5176 237.832 37.0195 236.312 37.7305C235.707 38.0156 235.02 38.1445 234.25 38.1172C233.562 38.0898 232.9 37.9375 232.264 37.6602L232.545 36.7285C233.752 37.2129 234.779 37.2891 235.627 36.957C236.576 36.582 237.156 35.6855 237.367 34.2676ZM237.443 33.0781C237.443 32.3242 237.225 31.7168 236.787 31.2559C236.342 30.791 235.746 30.5586 235 30.5586C234.426 30.5586 233.951 30.7148 233.576 31.0273C233.178 31.3594 232.979 31.791 232.979 32.3223C232.979 32.8262 233.166 33.2266 233.541 33.5234C233.896 33.8047 234.344 33.9453 234.883 33.9453C235.617 33.9453 236.307 33.7852 236.951 33.4648C237.143 33.3711 237.307 33.2754 237.443 33.1777V33.0781Z" fill="black"/>
<line x1="106.5" y1="14" x2="106.5" y2="41" stroke="black"/>
<line x1="242.5" y1="14" x2="242.5" y2="41" stroke="black"/>
<line x1="107" y1="41.5" x2="80" y2="41.5" stroke="black"/>
<line x1="243" y1="41.5" x2="216" y2="41.5" stroke="black"/>
<path d="M2.83594 23.752L0.638672 24.9941L0.322266 24.0508L2.83594 22.7031H3.91992V31H2.83594V23.752ZM5.45508 28.0352L9.94922 22.7031H11.0332V28.0234H12.6738V29.0078H11.0332V31H9.94922V29.0078H5.77148L5.45508 28.0352ZM9.94922 28.0234V24.0215L6.65625 28.0234H9.94922ZM14.4082 27.0801H18.6387V27.9824H14.4082V27.0801ZM26.2383 27.2676C25.4648 27.709 24.6016 27.9297 23.6484 27.9297C22.7969 27.9297 22.1035 27.7266 21.5684 27.3203C20.9902 26.8906 20.7012 26.2832 20.7012 25.498C20.7012 24.6387 21.0254 23.9336 21.6738 23.3828C22.3027 22.8516 23.0703 22.5859 23.9766 22.5859C25.0586 22.5859 25.9121 22.918 26.5371 23.582C27.1543 24.2383 27.4629 25.1191 27.4629 26.2246C27.4629 28.5176 26.7031 30.0195 25.1836 30.7305C24.5781 31.0156 23.8906 31.1445 23.1211 31.1172C22.4336 31.0898 21.7715 30.9375 21.1348 30.6602L21.416 29.7285C22.623 30.2129 23.6504 30.2891 24.498 29.957C25.4473 29.582 26.0273 28.6855 26.2383 27.2676ZM26.3145 26.0781C26.3145 25.3242 26.0957 24.7168 25.6582 24.2559C25.2129 23.791 24.6172 23.5586 23.8711 23.5586C23.2969 23.5586 22.8223 23.7148 22.4473 24.0273C22.0488 24.3594 21.8496 24.791 21.8496 25.3223C21.8496 25.8262 22.0371 26.2266 22.4121 26.5234C22.7676 26.8047 23.2148 26.9453 23.7539 26.9453C24.4883 26.9453 25.1777 26.7852 25.8223 26.4648C26.0137 26.3711 26.1777 26.2754 26.3145 26.1777V26.0781ZM29.373 26.1426H34.7754V27.0449H29.373V26.1426ZM29.373 28.4863H34.7754V29.3887H29.373V28.4863ZM36.9609 29.5059C37.6953 29.9238 38.4824 30.1328 39.3223 30.1328C39.9316 30.1328 40.4336 29.9961 40.8281 29.7227C41.25 29.4336 41.4609 29.0254 41.4609 28.498C41.4609 27.8613 41.0703 27.4258 40.2891 27.1914C39.5195 26.9648 38.459 26.9629 37.1074 27.1855V22.7031H42.1172V23.6875H38.1914V26.1074C39.4102 25.9434 40.4297 26.0391 41.25 26.3945C42.1719 26.793 42.6328 27.4766 42.6328 28.4453C42.6328 29.3008 42.2656 29.9727 41.5312 30.4609C40.875 30.8984 40.082 31.1172 39.1523 31.1172C38.168 31.1172 37.334 30.9043 36.6504 30.4785L36.9609 29.5059Z" fill="black"/>
<path d="M148.016 23.6289C147.402 23.668 146.844 23.6875 146.34 23.6875H143.357V22.7031H149.199V23.6875C148.523 24.4023 147.809 25.5352 147.055 27.0859C146.293 28.668 145.824 29.9727 145.648 31H144.447C144.709 29.7773 145.223 28.3945 145.988 26.8516C146.703 25.4141 147.379 24.3398 148.016 23.6289ZM150.693 27.0801H154.924V27.9824H150.693V27.0801ZM157.004 30.0156L159.201 28.1172C160.631 26.8711 161.346 25.875 161.346 25.1289C161.346 24.5859 161.199 24.1914 160.906 23.9453C160.617 23.6953 160.17 23.5703 159.564 23.5703C159.072 23.5703 158.48 23.707 157.789 23.9805C157.617 24.0469 157.482 24.1055 157.385 24.1562L157.086 23.2246C157.613 22.9551 158.27 22.7617 159.055 22.6445C159.305 22.6055 159.584 22.5859 159.893 22.5859C160.201 22.5859 160.523 22.6426 160.859 22.7559C161.199 22.8691 161.49 23.0312 161.732 23.2422C162.24 23.6836 162.494 24.2891 162.494 25.0586C162.494 26.1094 161.754 27.2578 160.273 28.5039L158.527 29.9746L162.711 29.9688V31H157.004V30.0156ZM164.674 26.1426H170.076V27.0449H164.674V26.1426ZM164.674 28.4863H170.076V29.3887H164.674V28.4863ZM172.262 29.5059C172.996 29.9238 173.783 30.1328 174.623 30.1328C175.232 30.1328 175.734 29.9961 176.129 29.7227C176.551 29.4336 176.762 29.0254 176.762 28.498C176.762 27.8613 176.371 27.4258 175.59 27.1914C174.82 26.9648 173.76 26.9629 172.408 27.1855V22.7031H177.418V23.6875H173.492V26.1074C174.711 25.9434 175.73 26.0391 176.551 26.3945C177.473 26.793 177.934 27.4766 177.934 28.4453C177.934 29.3008 177.566 29.9727 176.832 30.4609C176.176 30.8984 175.383 31.1172 174.453 31.1172C173.469 31.1172 172.635 30.9043 171.951 30.4785L172.262 29.5059Z" fill="black"/>
<path d="M132.707 27.7071C133.098 27.3166 133.098 26.6834 132.707 26.2929L126.343 19.9289C125.953 19.5384 125.319 19.5384 124.929 19.9289C124.538 20.3195 124.538 20.9526 124.929 21.3431L130.586 27L124.929 32.6569C124.538 33.0474 124.538 33.6805 124.929 34.0711C125.319 34.4616 125.953 34.4616 126.343 34.0711L132.707 27.7071ZM117 28H132V26H117V28Z" fill="#827373"/>
<path d="M67.7071 27.7071C68.0976 27.3166 68.0976 26.6834 67.7071 26.2929L61.3431 19.9289C60.9526 19.5384 60.3195 19.5384 59.9289 19.9289C59.5384 20.3195 59.5384 20.9526 59.9289 21.3431L65.5858 27L59.9289 32.6569C59.5384 33.0474 59.5384 33.6805 59.9289 34.0711C60.3195 34.4616 60.9526 34.4616 61.3431 34.0711L67.7071 27.7071ZM52 28H67V26H52V28Z" fill="#827373"/>
<path d="M203.707 27.7071C204.098 27.3166 204.098 26.6834 203.707 26.2929L197.343 19.9289C196.953 19.5384 196.319 19.5384 195.929 19.9289C195.538 20.3195 195.538 20.9526 195.929 21.3431L201.586 27L195.929 32.6569C195.538 33.0474 195.538 33.6805 195.929 34.0711C196.319 34.4616 196.953 34.4616 197.343 34.0711L203.707 27.7071ZM188 28H203V26H188V28Z" fill="#827373"/>
</svg>
