<svg width="186" height="49" viewBox="0 0 186 49" fill="none" xmlns="http://www.w3.org/2000/svg">
<path d="M64.8086 36.7773H65.5205L69.5283 41.6904V36.7773H70.2534V43H69.5723L65.5337 38.0518V43H64.8086V36.7773ZM75.0039 38.9922C75.1592 39.1475 75.2808 39.3438 75.3687 39.5811C75.4595 39.8154 75.5049 40.063 75.5049 40.3237C75.5049 40.5845 75.4756 40.8906 75.417 41.2422H72.3584C72.4229 41.5967 72.5664 41.8765 72.7891 42.0815C73.0117 42.2837 73.3267 42.3848 73.7339 42.3848C74.2788 42.3848 74.7783 42.2852 75.2324 42.0859L75.373 42.7144C75.0713 42.8901 74.6406 43.0059 74.0811 43.0615C73.9258 43.0791 73.7236 43.0879 73.4746 43.0879C73.2256 43.0879 72.9648 43.0381 72.6924 42.9385C72.4199 42.8389 72.1943 42.6924 72.0156 42.499C71.6611 42.1152 71.4839 41.5527 71.4839 40.8115C71.4839 40.1611 71.6963 39.6162 72.1211 39.1768C72.5518 38.7373 73.0894 38.5176 73.7339 38.5176C74.2642 38.5176 74.6875 38.6758 75.0039 38.9922ZM74.7095 40.5962L74.7271 40.3589C74.7271 39.8228 74.5264 39.4668 74.125 39.291C73.9902 39.2324 73.8291 39.2031 73.6416 39.2031C73.4541 39.2031 73.2812 39.2397 73.123 39.313C72.9678 39.3862 72.833 39.4858 72.7188 39.6118C72.4844 39.8696 72.3525 40.1978 72.3232 40.5962H74.7095ZM80.5278 39.8535C80.5776 40.1025 80.6025 40.3911 80.6025 40.7192V43H79.7676V40.772C79.7676 40.2476 79.7222 39.8975 79.6313 39.7217C79.5405 39.543 79.4277 39.4155 79.293 39.3394C79.1611 39.2603 79.0103 39.2207 78.8403 39.2207C78.6704 39.2207 78.5269 39.2354 78.4097 39.2646C78.2954 39.2939 78.1855 39.335 78.0801 39.3877C77.8662 39.502 77.6963 39.6543 77.5703 39.8447V43H76.7354V38.6055H77.3726L77.4956 39.0229C77.8765 38.686 78.3174 38.5176 78.8184 38.5176C79.5186 38.5176 80.0093 38.7432 80.2905 39.1943C80.5483 38.8955 80.8882 38.6904 81.3101 38.5791C81.4595 38.5381 81.6616 38.5176 81.9165 38.5176C82.1743 38.5176 82.4175 38.5674 82.646 38.667C82.8745 38.7666 83.0576 38.9102 83.1953 39.0977C83.4443 39.4463 83.5688 39.9868 83.5688 40.7192V43H82.7339V40.772C82.7339 40.2476 82.6885 39.8975 82.5977 39.7217C82.5068 39.543 82.394 39.4155 82.2593 39.3394C82.1274 39.2603 81.9766 39.2207 81.8066 39.2207C81.6367 39.2207 81.4932 39.2368 81.376 39.269C81.2588 39.2983 81.1475 39.3408 81.042 39.3965C80.8223 39.5078 80.6509 39.6602 80.5278 39.8535ZM84.7026 40.8423C84.7026 40.5083 84.7686 40.1992 84.9004 39.915C85.0322 39.6309 85.2109 39.3848 85.4365 39.1768C85.9141 38.7373 86.4883 38.5176 87.1592 38.5176C87.8359 38.5176 88.3999 38.7271 88.8511 39.146C89.3081 39.5708 89.5366 40.1172 89.5366 40.7852C89.5366 41.4385 89.292 41.9878 88.8027 42.4331C88.3281 42.8696 87.7539 43.0879 87.0801 43.0879C86.3945 43.0879 85.8291 42.8799 85.3838 42.4639C84.9297 42.042 84.7026 41.5015 84.7026 40.8423ZM85.5376 40.7939C85.5376 41.0225 85.5786 41.2349 85.6606 41.4312C85.7427 41.6245 85.8555 41.793 85.999 41.9365C86.3037 42.2354 86.6904 42.3848 87.1592 42.3848C87.5957 42.3848 87.9619 42.2354 88.2578 41.9365C88.5537 41.6436 88.7017 41.2759 88.7017 40.8335C88.7017 40.3706 88.5479 39.9854 88.2402 39.6777C87.9355 39.373 87.5488 39.2207 87.0801 39.2207C86.6436 39.2207 86.2773 39.3716 85.9814 39.6733C85.6855 39.9722 85.5376 40.3457 85.5376 40.7939ZM93.8331 43H90.3051V42.478L92.8971 38.788H90.4581V38.176H93.7701V38.77L91.2141 42.388H93.8331V43ZM91.6551 37.546C91.5771 37.408 91.4721 37.261 91.3401 37.105C91.2081 36.943 91.0701 36.784 90.9261 36.628C90.7821 36.472 90.6561 36.337 90.5481 36.223V36.106H91.0881C91.2441 36.208 91.4061 36.331 91.5741 36.475C91.7421 36.619 91.9011 36.772 92.0511 36.934C92.2131 36.772 92.3781 36.619 92.5461 36.475C92.7141 36.331 92.8761 36.208 93.0321 36.106H93.5901V36.223C93.4761 36.337 93.3441 36.472 93.1941 36.628C93.0501 36.784 92.9091 36.943 92.7711 37.105C92.6391 37.261 92.5371 37.408 92.4651 37.546H91.6551ZM98.1191 38.9922C98.2744 39.1475 98.396 39.3438 98.4839 39.5811C98.5747 39.8154 98.6201 40.063 98.6201 40.3237C98.6201 40.5845 98.5908 40.8906 98.5322 41.2422H95.4736C95.5381 41.5967 95.6816 41.8765 95.9043 42.0815C96.127 42.2837 96.4419 42.3848 96.8491 42.3848C97.394 42.3848 97.8936 42.2852 98.3477 42.0859L98.4883 42.7144C98.1865 42.8901 97.7559 43.0059 97.1963 43.0615C97.041 43.0791 96.8389 43.0879 96.5898 43.0879C96.3408 43.0879 96.0801 43.0381 95.8076 42.9385C95.5352 42.8389 95.3096 42.6924 95.1309 42.499C94.7764 42.1152 94.5991 41.5527 94.5991 40.8115C94.5991 40.1611 94.8115 39.6162 95.2363 39.1768C95.667 38.7373 96.2046 38.5176 96.8491 38.5176C97.3794 38.5176 97.8027 38.6758 98.1191 38.9922ZM97.8247 40.5962L97.8423 40.3589C97.8423 39.8228 97.6416 39.4668 97.2402 39.291C97.1055 39.2324 96.9443 39.2031 96.7568 39.2031C96.5693 39.2031 96.3965 39.2397 96.2383 39.313C96.083 39.3862 95.9482 39.4858 95.834 39.6118C95.5996 39.8696 95.4678 40.1978 95.4385 40.5962H97.8247Z" fill="black"/>
<path d="M1.66406 10.5195C1.38281 10.3164 1.1582 10.0625 0.990234 9.75781C0.826172 9.44922 0.744141 9.13477 0.744141 8.81445C0.744141 8.49023 0.783203 8.22461 0.861328 8.01758C0.943359 7.80664 1.05078 7.61328 1.18359 7.4375C1.46484 7.07422 1.81445 6.82031 2.23242 6.67578V6.64062C1.88867 6.54297 1.59766 6.33203 1.35938 6.00781C1.10938 5.67188 0.984375 5.31055 0.984375 4.92383C0.984375 4.5332 1.06836 4.19727 1.23633 3.91602C1.4043 3.63086 1.625 3.39062 1.89844 3.19531C2.46484 2.78906 3.14453 2.58594 3.9375 2.58594C4.74219 2.58594 5.41016 2.77344 5.94141 3.14844C6.50781 3.55469 6.79102 4.09766 6.79102 4.77734C6.79102 5.40234 6.53516 5.91016 6.02344 6.30078C5.85156 6.42969 5.65234 6.5332 5.42578 6.61133V6.64062C6.20703 6.85938 6.71484 7.29102 6.94922 7.93555C7.02344 8.14648 7.06055 8.38086 7.06055 8.63867C7.06055 8.89258 7.01758 9.13281 6.93164 9.35938C6.8457 9.58594 6.72656 9.79297 6.57422 9.98047C6.42578 10.1641 6.24805 10.3262 6.04102 10.4668C5.83789 10.6074 5.61719 10.7266 5.37891 10.8242C4.90234 11.0195 4.42188 11.1172 3.9375 11.1172C3.45312 11.1172 3.02344 11.0684 2.64844 10.9707C2.27734 10.8691 1.94922 10.7188 1.66406 10.5195ZM2.63086 5.92578C2.79102 6.04297 2.98242 6.12891 3.20508 6.18359C3.42773 6.23828 3.6543 6.26562 3.88477 6.26562C4.11914 6.26562 4.33789 6.23242 4.54102 6.16602C4.74414 6.0957 4.92773 5.99805 5.0918 5.87305C5.45898 5.5918 5.64258 5.25 5.64258 4.84766C5.64258 4.43359 5.46484 4.11133 5.10938 3.88086C4.78906 3.67383 4.36328 3.57031 3.83203 3.57031C3.09766 3.57031 2.58008 3.79492 2.2793 4.24414C2.17773 4.39648 2.12695 4.58984 2.12695 4.82422C2.12695 5.05859 2.16992 5.27148 2.25586 5.46289C2.3457 5.65039 2.4707 5.80469 2.63086 5.92578ZM2.05664 7.98242C1.93555 8.1582 1.875 8.37305 1.875 8.62695C1.875 8.87695 1.93164 9.0957 2.04492 9.2832C2.1582 9.4707 2.30859 9.62891 2.49609 9.75781C2.875 10.0078 3.35547 10.1328 3.9375 10.1328C4.81641 10.1328 5.41406 9.86523 5.73047 9.33008C5.83594 9.14648 5.88867 8.92969 5.88867 8.67969C5.88867 8.42578 5.82812 8.20898 5.70703 8.0293C5.58594 7.8457 5.42773 7.69531 5.23242 7.57812C4.84961 7.34766 4.38281 7.23242 3.83203 7.23242C2.99219 7.23242 2.40039 7.48242 2.05664 7.98242ZM8.25586 8.03516L12.75 2.70312H13.834V8.02344H15.4746V9.00781H13.834V11H12.75V9.00781H8.57227L8.25586 8.03516ZM12.75 8.02344V4.02148L9.45703 8.02344H12.75ZM17.209 7.08008H21.4395V7.98242H17.209V7.08008ZM23.5195 10.0156L25.7168 8.11719C27.1465 6.87109 27.8613 5.875 27.8613 5.12891C27.8613 4.58594 27.7148 4.19141 27.4219 3.94531C27.1328 3.69531 26.6855 3.57031 26.0801 3.57031C25.5879 3.57031 24.9961 3.70703 24.3047 3.98047C24.1328 4.04688 23.998 4.10547 23.9004 4.15625L23.6016 3.22461C24.1289 2.95508 24.7852 2.76172 25.5703 2.64453C25.8203 2.60547 26.0996 2.58594 26.4082 2.58594C26.7168 2.58594 27.0391 2.64258 27.375 2.75586C27.7148 2.86914 28.0059 3.03125 28.248 3.24219C28.7559 3.68359 29.0098 4.28906 29.0098 5.05859C29.0098 6.10938 28.2695 7.25781 26.7891 8.50391L25.043 9.97461L29.2266 9.96875V11H23.5195V10.0156ZM36.3633 7.26758C35.5898 7.70898 34.7266 7.92969 33.7734 7.92969C32.9219 7.92969 32.2285 7.72656 31.6934 7.32031C31.1152 6.89062 30.8262 6.2832 30.8262 5.49805C30.8262 4.63867 31.1504 3.93359 31.7988 3.38281C32.4277 2.85156 33.1953 2.58594 34.1016 2.58594C35.1836 2.58594 36.0371 2.91797 36.6621 3.58203C37.2793 4.23828 37.5879 5.11914 37.5879 6.22461C37.5879 8.51758 36.8281 10.0195 35.3086 10.7305C34.7031 11.0156 34.0156 11.1445 33.2461 11.1172C32.5586 11.0898 31.8965 10.9375 31.2598 10.6602L31.541 9.72852C32.748 10.2129 33.7754 10.2891 34.623 9.95703C35.5723 9.58203 36.1523 8.68555 36.3633 7.26758ZM36.4395 6.07812C36.4395 5.32422 36.2207 4.7168 35.7832 4.25586C35.3379 3.79102 34.7422 3.55859 33.9961 3.55859C33.4219 3.55859 32.9473 3.71484 32.5723 4.02734C32.1738 4.35938 31.9746 4.79102 31.9746 5.32227C31.9746 5.82617 32.1621 6.22656 32.5371 6.52344C32.8926 6.80469 33.3398 6.94531 33.8789 6.94531C34.6133 6.94531 35.3027 6.78516 35.9473 6.46484C36.1387 6.37109 36.3027 6.27539 36.4395 6.17773V6.07812ZM39.498 6.14258H44.9004V7.04492H39.498V6.14258ZM39.498 8.48633H44.9004V9.38867H39.498V8.48633ZM46.5938 3.13672C47.4141 2.76953 48.2793 2.58594 49.1895 2.58594C50.3145 2.58594 51.0859 2.86719 51.5039 3.42969C51.6562 3.63672 51.7324 3.87891 51.7324 4.15625C51.7324 4.43359 51.6855 4.67383 51.5918 4.87695C51.502 5.07617 51.3828 5.25977 51.2344 5.42773C51.0859 5.5957 50.918 5.75391 50.7305 5.90234L50.1797 6.33594C49.6992 6.71094 49.3867 7.00586 49.2422 7.2207C48.957 7.6543 48.8672 8.11328 48.9727 8.59766L48.0234 8.78516C47.8711 7.92969 48.0723 7.19141 48.627 6.57031C48.8926 6.27344 49.1719 6.00977 49.4648 5.7793C49.7617 5.54492 49.9805 5.35938 50.1211 5.22266C50.4297 4.92188 50.584 4.63867 50.584 4.37305C50.584 3.83008 50.084 3.55859 49.084 3.55859C48.6191 3.55859 48.0352 3.66016 47.332 3.86328C47.1406 3.91797 46.9805 3.97266 46.8516 4.02734L46.5938 3.13672ZM48.6973 11.0762C48.4785 11.0762 48.3027 11.0098 48.1699 10.877C48.0371 10.7441 47.9707 10.5684 47.9707 10.3496C47.9707 10.1309 48.0371 9.95703 48.1699 9.82812C48.3027 9.69531 48.4785 9.62891 48.6973 9.62891C48.916 9.62891 49.0918 9.69531 49.2246 9.82812C49.3574 9.95703 49.4238 10.1309 49.4238 10.3496C49.4238 10.5684 49.3574 10.7441 49.2246 10.877C49.0918 11.0098 48.916 11.0762 48.6973 11.0762Z" fill="black"/>
<path d="M12.6641 30.5195C12.3828 30.3164 12.1582 30.0625 11.9902 29.7578C11.8262 29.4492 11.7441 29.1348 11.7441 28.8145C11.7441 28.4902 11.7832 28.2246 11.8613 28.0176C11.9434 27.8066 12.0508 27.6133 12.1836 27.4375C12.4648 27.0742 12.8145 26.8203 13.2324 26.6758V26.6406C12.8887 26.543 12.5977 26.332 12.3594 26.0078C12.1094 25.6719 11.9844 25.3105 11.9844 24.9238C11.9844 24.5332 12.0684 24.1973 12.2363 23.916C12.4043 23.6309 12.625 23.3906 12.8984 23.1953C13.4648 22.7891 14.1445 22.5859 14.9375 22.5859C15.7422 22.5859 16.4102 22.7734 16.9414 23.1484C17.5078 23.5547 17.791 24.0977 17.791 24.7773C17.791 25.4023 17.5352 25.9102 17.0234 26.3008C16.8516 26.4297 16.6523 26.5332 16.4258 26.6113V26.6406C17.207 26.8594 17.7148 27.291 17.9492 27.9355C18.0234 28.1465 18.0605 28.3809 18.0605 28.6387C18.0605 28.8926 18.0176 29.1328 17.9316 29.3594C17.8457 29.5859 17.7266 29.793 17.5742 29.9805C17.4258 30.1641 17.248 30.3262 17.041 30.4668C16.8379 30.6074 16.6172 30.7266 16.3789 30.8242C15.9023 31.0195 15.4219 31.1172 14.9375 31.1172C14.4531 31.1172 14.0234 31.0684 13.6484 30.9707C13.2773 30.8691 12.9492 30.7188 12.6641 30.5195ZM13.6309 25.9258C13.791 26.043 13.9824 26.1289 14.2051 26.1836C14.4277 26.2383 14.6543 26.2656 14.8848 26.2656C15.1191 26.2656 15.3379 26.2324 15.541 26.166C15.7441 26.0957 15.9277 25.998 16.0918 25.873C16.459 25.5918 16.6426 25.25 16.6426 24.8477C16.6426 24.4336 16.4648 24.1113 16.1094 23.8809C15.7891 23.6738 15.3633 23.5703 14.832 23.5703C14.0977 23.5703 13.5801 23.7949 13.2793 24.2441C13.1777 24.3965 13.127 24.5898 13.127 24.8242C13.127 25.0586 13.1699 25.2715 13.2559 25.4629C13.3457 25.6504 13.4707 25.8047 13.6309 25.9258ZM13.0566 27.9824C12.9355 28.1582 12.875 28.373 12.875 28.627C12.875 28.877 12.9316 29.0957 13.0449 29.2832C13.1582 29.4707 13.3086 29.6289 13.4961 29.7578C13.875 30.0078 14.3555 30.1328 14.9375 30.1328C15.8164 30.1328 16.4141 29.8652 16.7305 29.3301C16.8359 29.1465 16.8887 28.9297 16.8887 28.6797C16.8887 28.4258 16.8281 28.209 16.707 28.0293C16.5859 27.8457 16.4277 27.6953 16.2324 27.5781C15.8496 27.3477 15.3828 27.2324 14.832 27.2324C13.9922 27.2324 13.4004 27.4824 13.0566 27.9824ZM19.2559 28.0352L23.75 22.7031H24.834V28.0234H26.4746V29.0078H24.834V31H23.75V29.0078H19.5723L19.2559 28.0352ZM23.75 28.0234V24.0215L20.457 28.0234H23.75Z" fill="black"/>
<path d="M142.236 28.6211C142.873 29.1016 143.564 29.3984 144.311 29.5117V27.1387C143.549 26.9941 143.02 26.834 142.723 26.6582C142.426 26.4824 142.207 26.2891 142.066 26.0781C141.926 25.8633 141.855 25.5996 141.855 25.2871C141.855 24.9707 141.924 24.6914 142.061 24.4492C142.201 24.2031 142.387 23.9922 142.617 23.8164C143.074 23.4688 143.639 23.2617 144.311 23.1953V22.3809H145.207V23.1953C146.016 23.2773 146.74 23.5234 147.381 23.9336L146.977 24.8828C146.43 24.5547 145.84 24.3301 145.207 24.209V26.3008C146.027 26.4648 146.588 26.6328 146.889 26.8047C147.193 26.9766 147.422 27.1738 147.574 27.3965C147.727 27.6152 147.803 27.8945 147.803 28.2344C147.803 28.875 147.539 29.3984 147.012 29.8047C146.543 30.168 145.941 30.3965 145.207 30.4902V31.5625H144.311V30.5195C143.588 30.4727 142.898 30.2734 142.242 29.9219C142.035 29.8125 141.848 29.6914 141.68 29.5586L142.236 28.6211ZM144.311 24.1738C143.717 24.2441 143.32 24.4414 143.121 24.7656C143.051 24.8828 143.016 25.0176 143.016 25.1699C143.016 25.3223 143.049 25.4473 143.115 25.5449C143.182 25.6426 143.273 25.7266 143.391 25.7969C143.598 25.9297 143.904 26.0391 144.311 26.125V24.1738ZM145.207 29.5117C145.859 29.4297 146.297 29.1953 146.52 28.8086C146.602 28.668 146.643 28.5137 146.643 28.3457C146.643 28.1777 146.605 28.041 146.531 27.9355C146.457 27.8301 146.355 27.7383 146.227 27.6602C146.008 27.5312 145.668 27.418 145.207 27.3203V29.5117ZM148.998 28.0352L153.492 22.7031H154.576V28.0234H156.217V29.0078H154.576V31H153.492V29.0078H149.314L148.998 28.0352ZM153.492 28.0234V24.0215L150.199 28.0234H153.492Z" fill="black"/>
<path d="M147.016 10.6289C146.402 10.668 145.844 10.6875 145.34 10.6875H142.357V9.70312H148.199V10.6875C147.523 11.4023 146.809 12.5352 146.055 14.0859C145.293 15.668 144.824 16.9727 144.648 18H143.447C143.709 16.7773 144.223 15.3945 144.988 13.8516C145.703 12.4141 146.379 11.3398 147.016 10.6289Z" fill="black"/>
<path d="M4.21289 41.0801H8.44336V41.9824H4.21289V41.0801ZM10.5234 44.0156L12.7207 42.1172C14.1504 40.8711 14.8652 39.875 14.8652 39.1289C14.8652 38.5859 14.7188 38.1914 14.4258 37.9453C14.1367 37.6953 13.6895 37.5703 13.084 37.5703C12.5918 37.5703 12 37.707 11.3086 37.9805C11.1367 38.0469 11.002 38.1055 10.9043 38.1562L10.6055 37.2246C11.1328 36.9551 11.7891 36.7617 12.5742 36.6445C12.8242 36.6055 13.1035 36.5859 13.4121 36.5859C13.7207 36.5859 14.043 36.6426 14.3789 36.7559C14.7188 36.8691 15.0098 37.0312 15.252 37.2422C15.7598 37.6836 16.0137 38.2891 16.0137 39.0586C16.0137 40.1094 15.2734 41.2578 13.793 42.5039L12.0469 43.9746L16.2305 43.9688V45H10.5234V44.0156ZM23.3672 41.2676C22.5938 41.709 21.7305 41.9297 20.7773 41.9297C19.9258 41.9297 19.2324 41.7266 18.6973 41.3203C18.1191 40.8906 17.8301 40.2832 17.8301 39.498C17.8301 38.6387 18.1543 37.9336 18.8027 37.3828C19.4316 36.8516 20.1992 36.5859 21.1055 36.5859C22.1875 36.5859 23.041 36.918 23.666 37.582C24.2832 38.2383 24.5918 39.1191 24.5918 40.2246C24.5918 42.5176 23.832 44.0195 22.3125 44.7305C21.707 45.0156 21.0195 45.1445 20.25 45.1172C19.5625 45.0898 18.9004 44.9375 18.2637 44.6602L18.5449 43.7285C19.752 44.2129 20.7793 44.2891 21.627 43.957C22.5762 43.582 23.1562 42.6855 23.3672 41.2676ZM23.4434 40.0781C23.4434 39.3242 23.2246 38.7168 22.7871 38.2559C22.3418 37.791 21.7461 37.5586 21 37.5586C20.4258 37.5586 19.9512 37.7148 19.5762 38.0273C19.1777 38.3594 18.9785 38.791 18.9785 39.3223C18.9785 39.8262 19.166 40.2266 19.541 40.5234C19.8965 40.8047 20.3438 40.9453 20.8828 40.9453C21.6172 40.9453 22.3066 40.7852 22.9512 40.4648C23.1426 40.3711 23.3066 40.2754 23.4434 40.1777V40.0781Z" fill="black"/>
<path d="M134.213 41.0801H138.443V41.9824H134.213V41.0801ZM140.523 44.0156L142.721 42.1172C144.15 40.8711 144.865 39.875 144.865 39.1289C144.865 38.5859 144.719 38.1914 144.426 37.9453C144.137 37.6953 143.689 37.5703 143.084 37.5703C142.592 37.5703 142 37.707 141.309 37.9805C141.137 38.0469 141.002 38.1055 140.904 38.1562L140.605 37.2246C141.133 36.9551 141.789 36.7617 142.574 36.6445C142.824 36.6055 143.104 36.5859 143.412 36.5859C143.721 36.5859 144.043 36.6426 144.379 36.7559C144.719 36.8691 145.01 37.0312 145.252 37.2422C145.76 37.6836 146.014 38.2891 146.014 39.0586C146.014 40.1094 145.273 41.2578 143.793 42.5039L142.047 43.9746L146.23 43.9688V45H140.523V44.0156ZM153.367 41.2676C152.594 41.709 151.73 41.9297 150.777 41.9297C149.926 41.9297 149.232 41.7266 148.697 41.3203C148.119 40.8906 147.83 40.2832 147.83 39.498C147.83 38.6387 148.154 37.9336 148.803 37.3828C149.432 36.8516 150.199 36.5859 151.105 36.5859C152.188 36.5859 153.041 36.918 153.666 37.582C154.283 38.2383 154.592 39.1191 154.592 40.2246C154.592 42.5176 153.832 44.0195 152.312 44.7305C151.707 45.0156 151.02 45.1445 150.25 45.1172C149.562 45.0898 148.9 44.9375 148.264 44.6602L148.545 43.7285C149.752 44.2129 150.779 44.2891 151.627 43.957C152.576 43.582 153.156 42.6855 153.367 41.2676ZM153.443 40.0781C153.443 39.3242 153.225 38.7168 152.787 38.2559C152.342 37.791 151.746 37.5586 151 37.5586C150.426 37.5586 149.951 37.7148 149.576 38.0273C149.178 38.3594 148.979 38.791 148.979 39.3223C148.979 39.8262 149.166 40.2266 149.541 40.5234C149.896 40.8047 150.344 40.9453 150.883 40.9453C151.617 40.9453 152.307 40.7852 152.951 40.4648C153.143 40.3711 153.307 40.2754 153.443 40.1777V40.0781Z" fill="black"/>
<line x1="28.5" y1="21" x2="28.5" y2="48" stroke="black"/>
<line x1="158.5" y1="21" x2="158.5" y2="48" stroke="black"/>
<line x1="29" y1="48.5" x2="2" y2="48.5" stroke="black"/>
<line x1="159" y1="48.5" x2="132" y2="48.5" stroke="black"/>
<path d="M64.4512 30.0352L68.9453 24.7031H70.0293V30.0234H71.6699V31.0078H70.0293V33H68.9453V31.0078H64.7676L64.4512 30.0352ZM68.9453 30.0234V26.0215L65.6523 30.0234H68.9453ZM73.4043 29.0801H77.6348V29.9824H73.4043V29.0801ZM85.2344 29.2676C84.4609 29.709 83.5977 29.9297 82.6445 29.9297C81.793 29.9297 81.0996 29.7266 80.5645 29.3203C79.9863 28.8906 79.6973 28.2832 79.6973 27.498C79.6973 26.6387 80.0215 25.9336 80.6699 25.3828C81.2988 24.8516 82.0664 24.5859 82.9727 24.5859C84.0547 24.5859 84.9082 24.918 85.5332 25.582C86.1504 26.2383 86.459 27.1191 86.459 28.2246C86.459 30.5176 85.6992 32.0195 84.1797 32.7305C83.5742 33.0156 82.8867 33.1445 82.1172 33.1172C81.4297 33.0898 80.7676 32.9375 80.1309 32.6602L80.4121 31.7285C81.6191 32.2129 82.6465 32.2891 83.4941 31.957C84.4434 31.582 85.0234 30.6855 85.2344 29.2676ZM85.3105 28.0781C85.3105 27.3242 85.0918 26.7168 84.6543 26.2559C84.209 25.791 83.6133 25.5586 82.8672 25.5586C82.293 25.5586 81.8184 25.7148 81.4434 26.0273C81.0449 26.3594 80.8457 26.791 80.8457 27.3223C80.8457 27.8262 81.0332 28.2266 81.4082 28.5234C81.7637 28.8047 82.2109 28.9453 82.75 28.9453C83.4844 28.9453 84.1738 28.7852 84.8184 28.4648C85.0098 28.3711 85.1738 28.2754 85.3105 28.1777V28.0781ZM88.3691 28.1426H93.7715V29.0449H88.3691V28.1426ZM88.3691 30.4863H93.7715V31.3887H88.3691V30.4863Z" fill="black"/>
<path d="M54.7071 34.7071C55.0976 34.3166 55.0976 33.6834 54.7071 33.2929L48.3431 26.9289C47.9526 26.5384 47.3195 26.5384 46.9289 26.9289C46.5384 27.3195 46.5384 27.9526 46.9289 28.3431L52.5858 34L46.9289 39.6569C46.5384 40.0474 46.5384 40.6805 46.9289 41.0711C47.3195 41.4616 47.9526 41.4616 48.3431 41.0711L54.7071 34.7071ZM39 35H54V33H39V35Z" fill="#827373"/>
<path d="M122.707 34.7071C123.098 34.3166 123.098 33.6834 122.707 33.2929L116.343 26.9289C115.953 26.5384 115.319 26.5384 114.929 26.9289C114.538 27.3195 114.538 27.9526 114.929 28.3431L120.586 34L114.929 39.6569C114.538 40.0474 114.538 40.6805 114.929 41.0711C115.319 41.4616 115.953 41.4616 116.343 41.0711L122.707 34.7071ZM107 35H122V33H107V35Z" fill="#827373"/>
<path d="M185.707 34.7071C186.098 34.3166 186.098 33.6834 185.707 33.2929L179.343 26.9289C178.953 26.5384 178.319 26.5384 177.929 26.9289C177.538 27.3195 177.538 27.9526 177.929 28.3431L183.586 34L177.929 39.6569C177.538 40.0474 177.538 40.6805 177.929 41.0711C178.319 41.4616 178.953 41.4616 179.343 41.0711L185.707 34.7071ZM170 35H185V33H170V35Z" fill="#827373"/>
</svg>
