<svg width="146" height="55" viewBox="0 0 146 55" fill="none" xmlns="http://www.w3.org/2000/svg">
<path d="M128.867 23.0156L131.064 21.1172C132.494 19.8711 133.209 18.875 133.209 18.1289C133.209 17.5859 133.062 17.1914 132.77 16.9453C132.48 16.6953 132.033 16.5703 131.428 16.5703C130.936 16.5703 130.344 16.707 129.652 16.9805C129.48 17.0469 129.346 17.1055 129.248 17.1562L128.949 16.2246C129.477 15.9551 130.133 15.7617 130.918 15.6445C131.168 15.6055 131.447 15.5859 131.756 15.5859C132.064 15.5859 132.387 15.6426 132.723 15.7559C133.062 15.8691 133.354 16.0312 133.596 16.2422C134.104 16.6836 134.357 17.2891 134.357 18.0586C134.357 19.1094 133.617 20.2578 132.137 21.5039L130.391 22.9746L134.574 22.9688V24H128.867V23.0156ZM141.711 20.2676C140.938 20.709 140.074 20.9297 139.121 20.9297C138.27 20.9297 137.576 20.7266 137.041 20.3203C136.463 19.8906 136.174 19.2832 136.174 18.498C136.174 17.6387 136.498 16.9336 137.146 16.3828C137.775 15.8516 138.543 15.5859 139.449 15.5859C140.531 15.5859 141.385 15.918 142.01 16.582C142.627 17.2383 142.936 18.1191 142.936 19.2246C142.936 21.5176 142.176 23.0195 140.656 23.7305C140.051 24.0156 139.363 24.1445 138.594 24.1172C137.906 24.0898 137.244 23.9375 136.607 23.6602L136.889 22.7285C138.096 23.2129 139.123 23.2891 139.971 22.957C140.92 22.582 141.5 21.6855 141.711 20.2676ZM141.787 19.0781C141.787 18.3242 141.568 17.7168 141.131 17.2559C140.686 16.791 140.09 16.5586 139.344 16.5586C138.77 16.5586 138.295 16.7148 137.92 17.0273C137.521 17.3594 137.322 17.791 137.322 18.3223C137.322 18.8262 137.51 19.2266 137.885 19.5234C138.24 19.8047 138.688 19.9453 139.227 19.9453C139.961 19.9453 140.65 19.7852 141.295 19.4648C141.486 19.3711 141.65 19.2754 141.787 19.1777V19.0781Z" fill="black"/>
<path d="M131.836 3.75195L129.639 4.99414L129.322 4.05078L131.836 2.70312H132.92V11H131.836V3.75195Z" fill="black"/>
<path d="M124.836 44.752L122.639 45.9941L122.322 45.0508L124.836 43.7031H125.92V52H124.836V44.752Z" fill="black"/>
<path d="M137.963 47.2305C138.443 47.2539 138.822 47.2656 139.1 47.2656C139.377 47.2656 139.643 47.2402 139.896 47.1895C140.15 47.1387 140.375 47.0566 140.57 46.9434C141.004 46.6934 141.221 46.3164 141.221 45.8125C141.221 45.3984 141.043 45.082 140.688 44.8633C140.371 44.668 139.971 44.5703 139.486 44.5703C138.939 44.5703 138.365 44.6797 137.764 44.8984C137.588 44.9648 137.436 45.0312 137.307 45.0977L137.008 44.166C137.523 43.9082 138.186 43.7305 138.994 43.6328C139.232 43.6016 139.49 43.5859 139.768 43.5859C140.049 43.5859 140.352 43.6328 140.676 43.7266C141.004 43.8164 141.293 43.9531 141.543 44.1367C142.094 44.5352 142.369 45.0703 142.369 45.7422C142.369 46.375 142.113 46.8926 141.602 47.2949C141.43 47.4277 141.23 47.5332 141.004 47.6113L140.998 47.6641C142.092 47.9492 142.639 48.6016 142.639 49.6211C142.639 50.3789 142.293 50.9941 141.602 51.4668C140.969 51.9004 140.225 52.1172 139.369 52.1172C138.248 52.1172 137.344 51.9043 136.656 51.4785L136.967 50.5059C137.467 50.7949 138.09 50.9883 138.836 51.0859C139.074 51.1172 139.311 51.1328 139.545 51.1328C139.779 51.1328 140.012 51.1016 140.242 51.0391C140.477 50.9766 140.684 50.8848 140.863 50.7637C141.266 50.4941 141.467 50.1309 141.467 49.6738C141.467 49.1035 141.121 48.6953 140.43 48.4492C139.789 48.2266 138.967 48.1738 137.963 48.291V47.2305Z" fill="black"/>
<path d="M131.836 44.752L129.639 45.9941L129.322 45.0508L131.836 43.7031H132.92V52H131.836V44.752Z" fill="black"/>
<path d="M121.213 34.4023H123.369V32.1406H124.453V34.4023H126.615V35.3867H124.453V37.6484H123.369V35.3867H121.213V34.4023ZM129.492 37.5195C129.211 37.3164 128.986 37.0625 128.818 36.7578C128.654 36.4492 128.572 36.1348 128.572 35.8145C128.572 35.4902 128.611 35.2246 128.689 35.0176C128.771 34.8066 128.879 34.6133 129.012 34.4375C129.293 34.0742 129.643 33.8203 130.061 33.6758V33.6406C129.717 33.543 129.426 33.332 129.188 33.0078C128.938 32.6719 128.812 32.3105 128.812 31.9238C128.812 31.5332 128.896 31.1973 129.064 30.916C129.232 30.6309 129.453 30.3906 129.727 30.1953C130.293 29.7891 130.973 29.5859 131.766 29.5859C132.57 29.5859 133.238 29.7734 133.77 30.1484C134.336 30.5547 134.619 31.0977 134.619 31.7773C134.619 32.4023 134.363 32.9102 133.852 33.3008C133.68 33.4297 133.48 33.5332 133.254 33.6113V33.6406C134.035 33.8594 134.543 34.291 134.777 34.9355C134.852 35.1465 134.889 35.3809 134.889 35.6387C134.889 35.8926 134.846 36.1328 134.76 36.3594C134.674 36.5859 134.555 36.793 134.402 36.9805C134.254 37.1641 134.076 37.3262 133.869 37.4668C133.666 37.6074 133.445 37.7266 133.207 37.8242C132.73 38.0195 132.25 38.1172 131.766 38.1172C131.281 38.1172 130.852 38.0684 130.477 37.9707C130.105 37.8691 129.777 37.7188 129.492 37.5195ZM130.459 32.9258C130.619 33.043 130.811 33.1289 131.033 33.1836C131.256 33.2383 131.482 33.2656 131.713 33.2656C131.947 33.2656 132.166 33.2324 132.369 33.166C132.572 33.0957 132.756 32.998 132.92 32.873C133.287 32.5918 133.471 32.25 133.471 31.8477C133.471 31.4336 133.293 31.1113 132.938 30.8809C132.617 30.6738 132.191 30.5703 131.66 30.5703C130.926 30.5703 130.408 30.7949 130.107 31.2441C130.006 31.3965 129.955 31.5898 129.955 31.8242C129.955 32.0586 129.998 32.2715 130.084 32.4629C130.174 32.6504 130.299 32.8047 130.459 32.9258ZM129.885 34.9824C129.764 35.1582 129.703 35.373 129.703 35.627C129.703 35.877 129.76 36.0957 129.873 36.2832C129.986 36.4707 130.137 36.6289 130.324 36.7578C130.703 37.0078 131.184 37.1328 131.766 37.1328C132.645 37.1328 133.242 36.8652 133.559 36.3301C133.664 36.1465 133.717 35.9297 133.717 35.6797C133.717 35.4258 133.656 35.209 133.535 35.0293C133.414 34.8457 133.256 34.6953 133.061 34.5781C132.678 34.3477 132.211 34.2324 131.66 34.2324C130.82 34.2324 130.229 34.4824 129.885 34.9824ZM136.084 35.0352L140.578 29.7031H141.662V35.0234H143.303V36.0078H141.662V38H140.578V36.0078H136.4L136.084 35.0352ZM140.578 35.0234V31.0215L137.285 35.0234H140.578Z" fill="black"/>
<line x1="145.5" y1="14" x2="145.5" y2="41" stroke="black"/>
<line x1="146" y1="41.5" x2="119" y2="41.5" stroke="black"/>
<path d="M28.8359 23.752L26.6387 24.9941L26.3223 24.0508L28.8359 22.7031H29.9199V31H28.8359V23.752ZM32.2168 27.4023H34.373V25.1406H35.457V27.4023H37.6191V28.3867H35.457V30.6484H34.373V28.3867H32.2168V27.4023ZM39.6992 30.0156L41.8965 28.1172C43.3262 26.8711 44.041 25.875 44.041 25.1289C44.041 24.5859 43.8945 24.1914 43.6016 23.9453C43.3125 23.6953 42.8652 23.5703 42.2598 23.5703C41.7676 23.5703 41.1758 23.707 40.4844 23.9805C40.3125 24.0469 40.1777 24.1055 40.0801 24.1562L39.7812 23.2246C40.3086 22.9551 40.9648 22.7617 41.75 22.6445C42 22.6055 42.2793 22.5859 42.5879 22.5859C42.8965 22.5859 43.2188 22.6426 43.5547 22.7559C43.8945 22.8691 44.1855 23.0312 44.4277 23.2422C44.9355 23.6836 45.1895 24.2891 45.1895 25.0586C45.1895 26.1094 44.4492 27.2578 42.9688 28.5039L41.2227 29.9746L45.4062 29.9688V31H39.6992V30.0156ZM47.3691 27.4023H49.5254V25.1406H50.6094V27.4023H52.7715V28.3867H50.6094V30.6484H49.5254V28.3867H47.3691V27.4023ZM55.6484 30.5195C55.3672 30.3164 55.1426 30.0625 54.9746 29.7578C54.8105 29.4492 54.7285 29.1348 54.7285 28.8145C54.7285 28.4902 54.7676 28.2246 54.8457 28.0176C54.9277 27.8066 55.0352 27.6133 55.168 27.4375C55.4492 27.0742 55.7988 26.8203 56.2168 26.6758V26.6406C55.873 26.543 55.582 26.332 55.3438 26.0078C55.0938 25.6719 54.9688 25.3105 54.9688 24.9238C54.9688 24.5332 55.0527 24.1973 55.2207 23.916C55.3887 23.6309 55.6094 23.3906 55.8828 23.1953C56.4492 22.7891 57.1289 22.5859 57.9219 22.5859C58.7266 22.5859 59.3945 22.7734 59.9258 23.1484C60.4922 23.5547 60.7754 24.0977 60.7754 24.7773C60.7754 25.4023 60.5195 25.9102 60.0078 26.3008C59.8359 26.4297 59.6367 26.5332 59.4102 26.6113V26.6406C60.1914 26.8594 60.6992 27.291 60.9336 27.9355C61.0078 28.1465 61.0449 28.3809 61.0449 28.6387C61.0449 28.8926 61.002 29.1328 60.916 29.3594C60.8301 29.5859 60.7109 29.793 60.5586 29.9805C60.4102 30.1641 60.2324 30.3262 60.0254 30.4668C59.8223 30.6074 59.6016 30.7266 59.3633 30.8242C58.8867 31.0195 58.4062 31.1172 57.9219 31.1172C57.4375 31.1172 57.0078 31.0684 56.6328 30.9707C56.2617 30.8691 55.9336 30.7188 55.6484 30.5195ZM56.6152 25.9258C56.7754 26.043 56.9668 26.1289 57.1895 26.1836C57.4121 26.2383 57.6387 26.2656 57.8691 26.2656C58.1035 26.2656 58.3223 26.2324 58.5254 26.166C58.7285 26.0957 58.9121 25.998 59.0762 25.873C59.4434 25.5918 59.627 25.25 59.627 24.8477C59.627 24.4336 59.4492 24.1113 59.0938 23.8809C58.7734 23.6738 58.3477 23.5703 57.8164 23.5703C57.082 23.5703 56.5645 23.7949 56.2637 24.2441C56.1621 24.3965 56.1113 24.5898 56.1113 24.8242C56.1113 25.0586 56.1543 25.2715 56.2402 25.4629C56.3301 25.6504 56.4551 25.8047 56.6152 25.9258ZM56.041 27.9824C55.9199 28.1582 55.8594 28.373 55.8594 28.627C55.8594 28.877 55.916 29.0957 56.0293 29.2832C56.1426 29.4707 56.293 29.6289 56.4805 29.7578C56.8594 30.0078 57.3398 30.1328 57.9219 30.1328C58.8008 30.1328 59.3984 29.8652 59.7148 29.3301C59.8203 29.1465 59.873 28.9297 59.873 28.6797C59.873 28.4258 59.8125 28.209 59.6914 28.0293C59.5703 27.8457 59.4121 27.6953 59.2168 27.5781C58.834 27.3477 58.3672 27.2324 57.8164 27.2324C56.9766 27.2324 56.3848 27.4824 56.041 27.9824ZM63.002 26.1426H68.4043V27.0449H63.002V26.1426ZM63.002 28.4863H68.4043V29.3887H63.002V28.4863ZM72.4531 23.752L70.2559 24.9941L69.9395 24.0508L72.4531 22.7031H73.5371V31H72.4531V23.752ZM77.457 23.752L75.2598 24.9941L74.9434 24.0508L77.457 22.7031H78.541V31H77.457V23.752Z" fill="black"/>
<path d="M15.7071 27.7071C16.0976 27.3166 16.0976 26.6834 15.7071 26.2929L9.34315 19.9289C8.95262 19.5384 8.31946 19.5384 7.92893 19.9289C7.53841 20.3195 7.53841 20.9526 7.92893 21.3431L13.5858 27L7.92893 32.6569C7.53841 33.0474 7.53841 33.6805 7.92893 34.0711C8.31946 34.4616 8.95262 34.4616 9.34315 34.0711L15.7071 27.7071ZM0 28H15V26H0V28Z" fill="#827373"/>
<path d="M106.707 27.7071C107.098 27.3166 107.098 26.6834 106.707 26.2929L100.343 19.9289C99.9526 19.5384 99.3195 19.5384 98.9289 19.9289C98.5384 20.3195 98.5384 20.9526 98.9289 21.3431L104.586 27L98.9289 32.6569C98.5384 33.0474 98.5384 33.6805 98.9289 34.0711C99.3195 34.4616 99.9526 34.4616 100.343 34.0711L106.707 27.7071ZM91 28H106V26H91V28Z" fill="#827373"/>
</svg>
