<svg width="78" height="48" viewBox="0 0 78 48" fill="none" xmlns="http://www.w3.org/2000/svg">
<path d="M3.49805 6.81641L0.275391 2.70312H1.69922L4.20703 5.9082L6.69727 2.70312H7.99219L4.85742 6.73438L8.20312 11H6.7793L4.14844 7.64844L1.54688 11H0.251953L3.49805 6.81641ZM9.67383 7.40234H11.8301V5.14062H12.9141V7.40234H15.0762V8.38672H12.9141V10.6484H11.8301V8.38672H9.67383V7.40234ZM16.7402 8.03516L21.2344 2.70312H22.3184V8.02344H23.959V9.00781H22.3184V11H21.2344V9.00781H17.0566L16.7402 8.03516ZM21.2344 8.02344V4.02148L17.9414 8.02344H21.2344ZM29.4961 3.62891C28.8828 3.66797 28.3242 3.6875 27.8203 3.6875H24.8379V2.70312H30.6797V3.6875C30.0039 4.40234 29.2891 5.53516 28.5352 7.08594C27.7734 8.66797 27.3047 9.97266 27.1289 11H25.9277C26.1895 9.77734 26.7031 8.39453 27.4688 6.85156C28.1836 5.41406 28.8594 4.33984 29.4961 3.62891ZM32.1738 6.14258H37.5762V7.04492H32.1738V6.14258ZM32.1738 8.48633H37.5762V9.38867H32.1738V8.48633ZM45.1758 7.26758C44.4023 7.70898 43.5391 7.92969 42.5859 7.92969C41.7344 7.92969 41.041 7.72656 40.5059 7.32031C39.9277 6.89062 39.6387 6.2832 39.6387 5.49805C39.6387 4.63867 39.9629 3.93359 40.6113 3.38281C41.2402 2.85156 42.0078 2.58594 42.9141 2.58594C43.9961 2.58594 44.8496 2.91797 45.4746 3.58203C46.0918 4.23828 46.4004 5.11914 46.4004 6.22461C46.4004 8.51758 45.6406 10.0195 44.1211 10.7305C43.5156 11.0156 42.8281 11.1445 42.0586 11.1172C41.3711 11.0898 40.709 10.9375 40.0723 10.6602L40.3535 9.72852C41.5605 10.2129 42.5879 10.2891 43.4355 9.95703C44.3848 9.58203 44.9648 8.68555 45.1758 7.26758ZM45.252 6.07812C45.252 5.32422 45.0332 4.7168 44.5957 4.25586C44.1504 3.79102 43.5547 3.55859 42.8086 3.55859C42.2344 3.55859 41.7598 3.71484 41.3848 4.02734C40.9863 4.35938 40.7871 4.79102 40.7871 5.32227C40.7871 5.82617 40.9746 6.22656 41.3496 6.52344C41.7051 6.80469 42.1523 6.94531 42.6914 6.94531C43.4258 6.94531 44.1152 6.78516 44.7598 6.46484C44.9512 6.37109 45.1152 6.27539 45.252 6.17773V6.07812ZM48.0703 9.50586C48.8047 9.92383 49.5918 10.1328 50.4316 10.1328C51.041 10.1328 51.543 9.99609 51.9375 9.72266C52.3594 9.43359 52.5703 9.02539 52.5703 8.49805C52.5703 7.86133 52.1797 7.42578 51.3984 7.19141C50.6289 6.96484 49.5684 6.96289 48.2168 7.18555V2.70312H53.2266V3.6875H49.3008V6.10742C50.5195 5.94336 51.5391 6.03906 52.3594 6.39453C53.2812 6.79297 53.7422 7.47656 53.7422 8.44531C53.7422 9.30078 53.375 9.97266 52.6406 10.4609C51.9844 10.8984 51.1914 11.1172 50.2617 11.1172C49.2773 11.1172 48.4434 10.9043 47.7598 10.4785L48.0703 9.50586Z" fill="black"/>
<path d="M27.498 23.8164L24.2754 19.7031H25.6992L28.207 22.9082L30.6973 19.7031H31.9922L28.8574 23.7344L32.2031 28H30.7793L28.1484 24.6484L25.5469 28H24.252L27.498 23.8164ZM33.6738 23.1426H39.0762V24.0449H33.6738V23.1426ZM33.6738 25.4863H39.0762V26.3887H33.6738V25.4863ZM46.6758 24.2676C45.9023 24.709 45.0391 24.9297 44.0859 24.9297C43.2344 24.9297 42.541 24.7266 42.0059 24.3203C41.4277 23.8906 41.1387 23.2832 41.1387 22.498C41.1387 21.6387 41.4629 20.9336 42.1113 20.3828C42.7402 19.8516 43.5078 19.5859 44.4141 19.5859C45.4961 19.5859 46.3496 19.918 46.9746 20.582C47.5918 21.2383 47.9004 22.1191 47.9004 23.2246C47.9004 25.5176 47.1406 27.0195 45.6211 27.7305C45.0156 28.0156 44.3281 28.1445 43.5586 28.1172C42.8711 28.0898 42.209 27.9375 41.5723 27.6602L41.8535 26.7285C43.0605 27.2129 44.0879 27.2891 44.9355 26.957C45.8848 26.582 46.4648 25.6855 46.6758 24.2676ZM46.752 23.0781C46.752 22.3242 46.5332 21.7168 46.0957 21.2559C45.6504 20.791 45.0547 20.5586 44.3086 20.5586C43.7344 20.5586 43.2598 20.7148 42.8848 21.0273C42.4863 21.3594 42.2871 21.791 42.2871 22.3223C42.2871 22.8262 42.4746 23.2266 42.8496 23.5234C43.2051 23.8047 43.6523 23.9453 44.1914 23.9453C44.9258 23.9453 45.6152 23.7852 46.2598 23.4648C46.4512 23.3711 46.6152 23.2754 46.752 23.1777V23.0781ZM49.5703 26.5059C50.3047 26.9238 51.0918 27.1328 51.9316 27.1328C52.541 27.1328 53.043 26.9961 53.4375 26.7227C53.8594 26.4336 54.0703 26.0254 54.0703 25.498C54.0703 24.8613 53.6797 24.4258 52.8984 24.1914C52.1289 23.9648 51.0684 23.9629 49.7168 24.1855V19.7031H54.7266V20.6875H50.8008V23.1074C52.0195 22.9434 53.0391 23.0391 53.8594 23.3945C54.7812 23.793 55.2422 24.4766 55.2422 25.4453C55.2422 26.3008 54.875 26.9727 54.1406 27.4609C53.4844 27.8984 52.6914 28.1172 51.7617 28.1172C50.7773 28.1172 49.9434 27.9043 49.2598 27.4785L49.5703 26.5059ZM57.2637 24.0801H61.4941V24.9824H57.2637V24.0801ZM63.1582 25.0352L67.6523 19.7031H68.7363V25.0234H70.377V26.0078H68.7363V28H67.6523V26.0078H63.4746L63.1582 25.0352ZM67.6523 25.0234V21.0215L64.3594 25.0234H67.6523ZM75.9141 20.6289C75.3008 20.668 74.7422 20.6875 74.2383 20.6875H71.2559V19.7031H77.0977V20.6875C76.4219 21.4023 75.707 22.5352 74.9531 24.0859C74.1914 25.668 73.7227 26.9727 73.5469 28H72.3457C72.6074 26.7773 73.1211 25.3945 73.8867 23.8516C74.6016 22.4141 75.2773 21.3398 75.9141 20.6289Z" fill="black"/>
<path d="M28.498 40.8164L25.2754 36.7031H26.6992L29.207 39.9082L31.6973 36.7031H32.9922L29.8574 40.7344L33.2031 45H31.7793L29.1484 41.6484L26.5469 45H25.252L28.498 40.8164ZM34.6738 40.1426H40.0762V41.0449H34.6738V40.1426ZM34.6738 42.4863H40.0762V43.3887H34.6738V42.4863ZM41.7402 42.0352L46.2344 36.7031H47.3184V42.0234H48.959V43.0078H47.3184V45H46.2344V43.0078H42.0566L41.7402 42.0352ZM46.2344 42.0234V38.0215L42.9414 42.0234H46.2344ZM51.1445 44.5195C50.8633 44.3164 50.6387 44.0625 50.4707 43.7578C50.3066 43.4492 50.2246 43.1348 50.2246 42.8145C50.2246 42.4902 50.2637 42.2246 50.3418 42.0176C50.4238 41.8066 50.5312 41.6133 50.6641 41.4375C50.9453 41.0742 51.2949 40.8203 51.7129 40.6758V40.6406C51.3691 40.543 51.0781 40.332 50.8398 40.0078C50.5898 39.6719 50.4648 39.3105 50.4648 38.9238C50.4648 38.5332 50.5488 38.1973 50.7168 37.916C50.8848 37.6309 51.1055 37.3906 51.3789 37.1953C51.9453 36.7891 52.625 36.5859 53.418 36.5859C54.2227 36.5859 54.8906 36.7734 55.4219 37.1484C55.9883 37.5547 56.2715 38.0977 56.2715 38.7773C56.2715 39.4023 56.0156 39.9102 55.5039 40.3008C55.332 40.4297 55.1328 40.5332 54.9062 40.6113V40.6406C55.6875 40.8594 56.1953 41.291 56.4297 41.9355C56.5039 42.1465 56.541 42.3809 56.541 42.6387C56.541 42.8926 56.498 43.1328 56.4121 43.3594C56.3262 43.5859 56.207 43.793 56.0547 43.9805C55.9062 44.1641 55.7285 44.3262 55.5215 44.4668C55.3184 44.6074 55.0977 44.7266 54.8594 44.8242C54.3828 45.0195 53.9023 45.1172 53.418 45.1172C52.9336 45.1172 52.5039 45.0684 52.1289 44.9707C51.7578 44.8691 51.4297 44.7188 51.1445 44.5195ZM52.1113 39.9258C52.2715 40.043 52.4629 40.1289 52.6855 40.1836C52.9082 40.2383 53.1348 40.2656 53.3652 40.2656C53.5996 40.2656 53.8184 40.2324 54.0215 40.166C54.2246 40.0957 54.4082 39.998 54.5723 39.873C54.9395 39.5918 55.123 39.25 55.123 38.8477C55.123 38.4336 54.9453 38.1113 54.5898 37.8809C54.2695 37.6738 53.8438 37.5703 53.3125 37.5703C52.5781 37.5703 52.0605 37.7949 51.7598 38.2441C51.6582 38.3965 51.6074 38.5898 51.6074 38.8242C51.6074 39.0586 51.6504 39.2715 51.7363 39.4629C51.8262 39.6504 51.9512 39.8047 52.1113 39.9258ZM51.5371 41.9824C51.416 42.1582 51.3555 42.373 51.3555 42.627C51.3555 42.877 51.4121 43.0957 51.5254 43.2832C51.6387 43.4707 51.7891 43.6289 51.9766 43.7578C52.3555 44.0078 52.8359 44.1328 53.418 44.1328C54.2969 44.1328 54.8945 43.8652 55.2109 43.3301C55.3164 43.1465 55.3691 42.9297 55.3691 42.6797C55.3691 42.4258 55.3086 42.209 55.1875 42.0293C55.0664 41.8457 54.9082 41.6953 54.7129 41.5781C54.3301 41.3477 53.8633 41.2324 53.3125 41.2324C52.4727 41.2324 51.8809 41.4824 51.5371 41.9824Z" fill="black"/>
</svg>
