<svg width="75" height="44" viewBox="0 0 75 44" fill="none" xmlns="http://www.w3.org/2000/svg">
<path d="M3.49805 4.81641L0.275391 0.703125H1.69922L4.20703 3.9082L6.69727 0.703125H7.99219L4.85742 4.73438L8.20312 9H6.7793L4.14844 5.64844L1.54688 9H0.251953L3.49805 4.81641ZM9.67383 5.08008H13.9043V5.98242H9.67383V5.08008ZM16.0898 7.50586C16.8242 7.92383 17.6113 8.13281 18.4512 8.13281C19.0605 8.13281 19.5625 7.99609 19.957 7.72266C20.3789 7.43359 20.5898 7.02539 20.5898 6.49805C20.5898 5.86133 20.1992 5.42578 19.418 5.19141C18.6484 4.96484 17.5879 4.96289 16.2363 5.18555V0.703125H21.2461V1.6875H17.3203V4.10742C18.5391 3.94336 19.5586 4.03906 20.3789 4.39453C21.3008 4.79297 21.7617 5.47656 21.7617 6.44531C21.7617 7.30078 21.3945 7.97266 20.6602 8.46094C20.0039 8.89844 19.2109 9.11719 18.2812 9.11719C17.2969 9.11719 16.4629 8.9043 15.7793 8.47852L16.0898 7.50586ZM27.5859 1.62891C26.9727 1.66797 26.4141 1.6875 25.9102 1.6875H22.9277V0.703125H28.7695V1.6875C28.0938 2.40234 27.3789 3.53516 26.625 5.08594C25.8633 6.66797 25.3945 7.97266 25.2188 9H24.0176C24.2793 7.77734 24.793 6.39453 25.5586 4.85156C26.2734 3.41406 26.9492 2.33984 27.5859 1.62891ZM30.2637 4.14258H35.666V5.04492H30.2637V4.14258ZM30.2637 6.48633H35.666V7.38867H30.2637V6.48633ZM38.8418 4.23047C39.3223 4.25391 39.7012 4.26562 39.9785 4.26562C40.2559 4.26562 40.5215 4.24023 40.7754 4.18945C41.0293 4.13867 41.2539 4.05664 41.4492 3.94336C41.8828 3.69336 42.0996 3.31641 42.0996 2.8125C42.0996 2.39844 41.9219 2.08203 41.5664 1.86328C41.25 1.66797 40.8496 1.57031 40.3652 1.57031C39.8184 1.57031 39.2441 1.67969 38.6426 1.89844C38.4668 1.96484 38.3145 2.03125 38.1855 2.09766L37.8867 1.16602C38.4023 0.908203 39.0645 0.730469 39.873 0.632812C40.1113 0.601563 40.3691 0.585938 40.6465 0.585938C40.9277 0.585938 41.2305 0.632812 41.5547 0.726562C41.8828 0.816406 42.1719 0.953125 42.4219 1.13672C42.9727 1.53516 43.248 2.07031 43.248 2.74219C43.248 3.375 42.9922 3.89258 42.4805 4.29492C42.3086 4.42773 42.1094 4.5332 41.8828 4.61133L41.877 4.66406C42.9707 4.94922 43.5176 5.60156 43.5176 6.62109C43.5176 7.37891 43.1719 7.99414 42.4805 8.4668C41.8477 8.90039 41.1035 9.11719 40.248 9.11719C39.127 9.11719 38.2227 8.9043 37.5352 8.47852L37.8457 7.50586C38.3457 7.79492 38.9688 7.98828 39.7148 8.08594C39.9531 8.11719 40.1895 8.13281 40.4238 8.13281C40.6582 8.13281 40.8906 8.10156 41.1211 8.03906C41.3555 7.97656 41.5625 7.88477 41.7422 7.76367C42.1445 7.49414 42.3457 7.13086 42.3457 6.67383C42.3457 6.10352 42 5.69531 41.3086 5.44922C40.668 5.22656 39.8457 5.17383 38.8418 5.29102V4.23047ZM47.1562 1.75195L44.959 2.99414L44.6426 2.05078L47.1562 0.703125H48.2402V9H47.1562V1.75195Z" fill="black"/>
<path d="M27.498 21.8164L24.2754 17.7031H25.6992L28.207 20.9082L30.6973 17.7031H31.9922L28.8574 21.7344L32.2031 26H30.7793L28.1484 22.6484L25.5469 26H24.252L27.498 21.8164ZM33.6738 21.1426H39.0762V22.0449H33.6738V21.1426ZM33.6738 23.4863H39.0762V24.3887H33.6738V23.4863ZM42.252 21.2305C42.7324 21.2539 43.1113 21.2656 43.3887 21.2656C43.666 21.2656 43.9316 21.2402 44.1855 21.1895C44.4395 21.1387 44.6641 21.0566 44.8594 20.9434C45.293 20.6934 45.5098 20.3164 45.5098 19.8125C45.5098 19.3984 45.332 19.082 44.9766 18.8633C44.6602 18.668 44.2598 18.5703 43.7754 18.5703C43.2285 18.5703 42.6543 18.6797 42.0527 18.8984C41.877 18.9648 41.7246 19.0312 41.5957 19.0977L41.2969 18.166C41.8125 17.9082 42.4746 17.7305 43.2832 17.6328C43.5215 17.6016 43.7793 17.5859 44.0566 17.5859C44.3379 17.5859 44.6406 17.6328 44.9648 17.7266C45.293 17.8164 45.582 17.9531 45.832 18.1367C46.3828 18.5352 46.6582 19.0703 46.6582 19.7422C46.6582 20.375 46.4023 20.8926 45.8906 21.2949C45.7188 21.4277 45.5195 21.5332 45.293 21.6113L45.2871 21.6641C46.3809 21.9492 46.9277 22.6016 46.9277 23.6211C46.9277 24.3789 46.582 24.9941 45.8906 25.4668C45.2578 25.9004 44.5137 26.1172 43.6582 26.1172C42.5371 26.1172 41.6328 25.9043 40.9453 25.4785L41.2559 24.5059C41.7559 24.7949 42.3789 24.9883 43.125 25.0859C43.3633 25.1172 43.5996 25.1328 43.834 25.1328C44.0684 25.1328 44.3008 25.1016 44.5312 25.0391C44.7656 24.9766 44.9727 24.8848 45.1523 24.7637C45.5547 24.4941 45.7559 24.1309 45.7559 23.6738C45.7559 23.1035 45.4102 22.6953 44.7188 22.4492C44.0781 22.2266 43.2559 22.1738 42.252 22.291V21.2305ZM50.5664 18.752L48.3691 19.9941L48.0527 19.0508L50.5664 17.7031H51.6504V26H50.5664V18.752ZM53.9473 22.4023H56.1035V20.1406H57.1875V22.4023H59.3496V23.3867H57.1875V25.6484H56.1035V23.3867H53.9473V22.4023ZM61.5352 24.5059C62.2695 24.9238 63.0566 25.1328 63.8965 25.1328C64.5059 25.1328 65.0078 24.9961 65.4023 24.7227C65.8242 24.4336 66.0352 24.0254 66.0352 23.498C66.0352 22.8613 65.6445 22.4258 64.8633 22.1914C64.0938 21.9648 63.0332 21.9629 61.6816 22.1855V17.7031H66.6914V18.6875H62.7656V21.1074C63.9844 20.9434 65.0039 21.0391 65.8242 21.3945C66.7461 21.793 67.207 22.4766 67.207 23.4453C67.207 24.3008 66.8398 24.9727 66.1055 25.4609C65.4492 25.8984 64.6562 26.1172 63.7266 26.1172C62.7422 26.1172 61.9082 25.9043 61.2246 25.4785L61.5352 24.5059ZM73.0312 18.6289C72.418 18.668 71.8594 18.6875 71.3555 18.6875H68.373V17.7031H74.2148V18.6875C73.5391 19.4023 72.8242 20.5352 72.0703 22.0859C71.3086 23.668 70.8398 24.9727 70.6641 26H69.4629C69.7246 24.7773 70.2383 23.3945 71.0039 21.8516C71.7188 20.4141 72.3945 19.3398 73.0312 18.6289Z" fill="black"/>
<path d="M28.498 38.8164L25.2754 34.7031H26.6992L29.207 37.9082L31.6973 34.7031H32.9922L29.8574 38.7344L33.2031 43H31.7793L29.1484 39.6484L26.5469 43H25.252L28.498 38.8164ZM34.6738 38.1426H40.0762V39.0449H34.6738V38.1426ZM34.6738 40.4863H40.0762V41.3887H34.6738V40.4863ZM42.9531 42.5195C42.6719 42.3164 42.4473 42.0625 42.2793 41.7578C42.1152 41.4492 42.0332 41.1348 42.0332 40.8145C42.0332 40.4902 42.0723 40.2246 42.1504 40.0176C42.2324 39.8066 42.3398 39.6133 42.4727 39.4375C42.7539 39.0742 43.1035 38.8203 43.5215 38.6758V38.6406C43.1777 38.543 42.8867 38.332 42.6484 38.0078C42.3984 37.6719 42.2734 37.3105 42.2734 36.9238C42.2734 36.5332 42.3574 36.1973 42.5254 35.916C42.6934 35.6309 42.9141 35.3906 43.1875 35.1953C43.7539 34.7891 44.4336 34.5859 45.2266 34.5859C46.0312 34.5859 46.6992 34.7734 47.2305 35.1484C47.7969 35.5547 48.0801 36.0977 48.0801 36.7773C48.0801 37.4023 47.8242 37.9102 47.3125 38.3008C47.1406 38.4297 46.9414 38.5332 46.7148 38.6113V38.6406C47.4961 38.8594 48.0039 39.291 48.2383 39.9355C48.3125 40.1465 48.3496 40.3809 48.3496 40.6387C48.3496 40.8926 48.3066 41.1328 48.2207 41.3594C48.1348 41.5859 48.0156 41.793 47.8633 41.9805C47.7148 42.1641 47.5371 42.3262 47.3301 42.4668C47.127 42.6074 46.9062 42.7266 46.668 42.8242C46.1914 43.0195 45.7109 43.1172 45.2266 43.1172C44.7422 43.1172 44.3125 43.0684 43.9375 42.9707C43.5664 42.8691 43.2383 42.7188 42.9531 42.5195ZM43.9199 37.9258C44.0801 38.043 44.2715 38.1289 44.4941 38.1836C44.7168 38.2383 44.9434 38.2656 45.1738 38.2656C45.4082 38.2656 45.627 38.2324 45.8301 38.166C46.0332 38.0957 46.2168 37.998 46.3809 37.873C46.748 37.5918 46.9316 37.25 46.9316 36.8477C46.9316 36.4336 46.7539 36.1113 46.3984 35.8809C46.0781 35.6738 45.6523 35.5703 45.1211 35.5703C44.3867 35.5703 43.8691 35.7949 43.5684 36.2441C43.4668 36.3965 43.416 36.5898 43.416 36.8242C43.416 37.0586 43.459 37.2715 43.5449 37.4629C43.6348 37.6504 43.7598 37.8047 43.9199 37.9258ZM43.3457 39.9824C43.2246 40.1582 43.1641 40.373 43.1641 40.627C43.1641 40.877 43.2207 41.0957 43.334 41.2832C43.4473 41.4707 43.5977 41.6289 43.7852 41.7578C44.1641 42.0078 44.6445 42.1328 45.2266 42.1328C46.1055 42.1328 46.7031 41.8652 47.0195 41.3301C47.125 41.1465 47.1777 40.9297 47.1777 40.6797C47.1777 40.4258 47.1172 40.209 46.9961 40.0293C46.875 39.8457 46.7168 39.6953 46.5215 39.5781C46.1387 39.3477 45.6719 39.2324 45.1211 39.2324C44.2812 39.2324 43.6895 39.4824 43.3457 39.9824ZM50.7578 42.5195C50.4766 42.3164 50.252 42.0625 50.084 41.7578C49.9199 41.4492 49.8379 41.1348 49.8379 40.8145C49.8379 40.4902 49.877 40.2246 49.9551 40.0176C50.0371 39.8066 50.1445 39.6133 50.2773 39.4375C50.5586 39.0742 50.9082 38.8203 51.3262 38.6758V38.6406C50.9824 38.543 50.6914 38.332 50.4531 38.0078C50.2031 37.6719 50.0781 37.3105 50.0781 36.9238C50.0781 36.5332 50.1621 36.1973 50.3301 35.916C50.498 35.6309 50.7188 35.3906 50.9922 35.1953C51.5586 34.7891 52.2383 34.5859 53.0312 34.5859C53.8359 34.5859 54.5039 34.7734 55.0352 35.1484C55.6016 35.5547 55.8848 36.0977 55.8848 36.7773C55.8848 37.4023 55.6289 37.9102 55.1172 38.3008C54.9453 38.4297 54.7461 38.5332 54.5195 38.6113V38.6406C55.3008 38.8594 55.8086 39.291 56.043 39.9355C56.1172 40.1465 56.1543 40.3809 56.1543 40.6387C56.1543 40.8926 56.1113 41.1328 56.0254 41.3594C55.9395 41.5859 55.8203 41.793 55.668 41.9805C55.5195 42.1641 55.3418 42.3262 55.1348 42.4668C54.9316 42.6074 54.7109 42.7266 54.4727 42.8242C53.9961 43.0195 53.5156 43.1172 53.0312 43.1172C52.5469 43.1172 52.1172 43.0684 51.7422 42.9707C51.3711 42.8691 51.043 42.7188 50.7578 42.5195ZM51.7246 37.9258C51.8848 38.043 52.0762 38.1289 52.2988 38.1836C52.5215 38.2383 52.748 38.2656 52.9785 38.2656C53.2129 38.2656 53.4316 38.2324 53.6348 38.166C53.8379 38.0957 54.0215 37.998 54.1855 37.873C54.5527 37.5918 54.7363 37.25 54.7363 36.8477C54.7363 36.4336 54.5586 36.1113 54.2031 35.8809C53.8828 35.6738 53.457 35.5703 52.9258 35.5703C52.1914 35.5703 51.6738 35.7949 51.373 36.2441C51.2715 36.3965 51.2207 36.5898 51.2207 36.8242C51.2207 37.0586 51.2637 37.2715 51.3496 37.4629C51.4395 37.6504 51.5645 37.8047 51.7246 37.9258ZM51.1504 39.9824C51.0293 40.1582 50.9688 40.373 50.9688 40.627C50.9688 40.877 51.0254 41.0957 51.1387 41.2832C51.252 41.4707 51.4023 41.6289 51.5898 41.7578C51.9688 42.0078 52.4492 42.1328 53.0312 42.1328C53.9102 42.1328 54.5078 41.8652 54.8242 41.3301C54.9297 41.1465 54.9824 40.9297 54.9824 40.6797C54.9824 40.4258 54.9219 40.209 54.8008 40.0293C54.6797 39.8457 54.5215 39.6953 54.3262 39.5781C53.9434 39.3477 53.4766 39.2324 52.9258 39.2324C52.0859 39.2324 51.4941 39.4824 51.1504 39.9824Z" fill="black"/>
</svg>
