<svg width="326" height="62" viewBox="0 0 326 62" fill="none" xmlns="http://www.w3.org/2000/svg">
<path d="M0.867188 10.0156L3.06445 8.11719C4.49414 6.87109 5.20898 5.875 5.20898 5.12891C5.20898 4.58594 5.0625 4.19141 4.76953 3.94531C4.48047 3.69531 4.0332 3.57031 3.42773 3.57031C2.93555 3.57031 2.34375 3.70703 1.65234 3.98047C1.48047 4.04688 1.3457 4.10547 1.24805 4.15625L0.949219 3.22461C1.47656 2.95508 2.13281 2.76172 2.91797 2.64453C3.16797 2.60547 3.44727 2.58594 3.75586 2.58594C4.06445 2.58594 4.38672 2.64258 4.72266 2.75586C5.0625 2.86914 5.35352 3.03125 5.5957 3.24219C6.10352 3.68359 6.35742 4.28906 6.35742 5.05859C6.35742 6.10938 5.61719 7.25781 4.13672 8.50391L2.39062 9.97461L6.57422 9.96875V11H0.867188V10.0156ZM13.7109 7.26758C12.9375 7.70898 12.0742 7.92969 11.1211 7.92969C10.2695 7.92969 9.57617 7.72656 9.04102 7.32031C8.46289 6.89062 8.17383 6.2832 8.17383 5.49805C8.17383 4.63867 8.49805 3.93359 9.14648 3.38281C9.77539 2.85156 10.543 2.58594 11.4492 2.58594C12.5312 2.58594 13.3848 2.91797 14.0098 3.58203C14.627 4.23828 14.9355 5.11914 14.9355 6.22461C14.9355 8.51758 14.1758 10.0195 12.6562 10.7305C12.0508 11.0156 11.3633 11.1445 10.5938 11.1172C9.90625 11.0898 9.24414 10.9375 8.60742 10.6602L8.88867 9.72852C10.0957 10.2129 11.123 10.2891 11.9707 9.95703C12.9199 9.58203 13.5 8.68555 13.7109 7.26758ZM13.7871 6.07812C13.7871 5.32422 13.5684 4.7168 13.1309 4.25586C12.6855 3.79102 12.0898 3.55859 11.3438 3.55859C10.7695 3.55859 10.2949 3.71484 9.91992 4.02734C9.52148 4.35938 9.32227 4.79102 9.32227 5.32227C9.32227 5.82617 9.50977 6.22656 9.88477 6.52344C10.2402 6.80469 10.6875 6.94531 11.2266 6.94531C11.9609 6.94531 12.6504 6.78516 13.2949 6.46484C13.4863 6.37109 13.6504 6.27539 13.7871 6.17773V6.07812ZM16.8457 7.40234H19.002V5.14062H20.0859V7.40234H22.248V8.38672H20.0859V10.6484H19.002V8.38672H16.8457V7.40234ZM25.125 10.5195C24.8438 10.3164 24.6191 10.0625 24.4512 9.75781C24.2871 9.44922 24.2051 9.13477 24.2051 8.81445C24.2051 8.49023 24.2441 8.22461 24.3223 8.01758C24.4043 7.80664 24.5117 7.61328 24.6445 7.4375C24.9258 7.07422 25.2754 6.82031 25.6934 6.67578V6.64062C25.3496 6.54297 25.0586 6.33203 24.8203 6.00781C24.5703 5.67188 24.4453 5.31055 24.4453 4.92383C24.4453 4.5332 24.5293 4.19727 24.6973 3.91602C24.8652 3.63086 25.0859 3.39062 25.3594 3.19531C25.9258 2.78906 26.6055 2.58594 27.3984 2.58594C28.2031 2.58594 28.8711 2.77344 29.4023 3.14844C29.9688 3.55469 30.252 4.09766 30.252 4.77734C30.252 5.40234 29.9961 5.91016 29.4844 6.30078C29.3125 6.42969 29.1133 6.5332 28.8867 6.61133V6.64062C29.668 6.85938 30.1758 7.29102 30.4102 7.93555C30.4844 8.14648 30.5215 8.38086 30.5215 8.63867C30.5215 8.89258 30.4785 9.13281 30.3926 9.35938C30.3066 9.58594 30.1875 9.79297 30.0352 9.98047C29.8867 10.1641 29.709 10.3262 29.502 10.4668C29.2988 10.6074 29.0781 10.7266 28.8398 10.8242C28.3633 11.0195 27.8828 11.1172 27.3984 11.1172C26.9141 11.1172 26.4844 11.0684 26.1094 10.9707C25.7383 10.8691 25.4102 10.7188 25.125 10.5195ZM26.0918 5.92578C26.252 6.04297 26.4434 6.12891 26.666 6.18359C26.8887 6.23828 27.1152 6.26562 27.3457 6.26562C27.5801 6.26562 27.7988 6.23242 28.002 6.16602C28.2051 6.0957 28.3887 5.99805 28.5527 5.87305C28.9199 5.5918 29.1035 5.25 29.1035 4.84766C29.1035 4.43359 28.9258 4.11133 28.5703 3.88086C28.25 3.67383 27.8242 3.57031 27.293 3.57031C26.5586 3.57031 26.041 3.79492 25.7402 4.24414C25.6387 4.39648 25.5879 4.58984 25.5879 4.82422C25.5879 5.05859 25.6309 5.27148 25.7168 5.46289C25.8066 5.65039 25.9316 5.80469 26.0918 5.92578ZM25.5176 7.98242C25.3965 8.1582 25.3359 8.37305 25.3359 8.62695C25.3359 8.87695 25.3926 9.0957 25.5059 9.2832C25.6191 9.4707 25.7695 9.62891 25.957 9.75781C26.3359 10.0078 26.8164 10.1328 27.3984 10.1328C28.2773 10.1328 28.875 9.86523 29.1914 9.33008C29.2969 9.14648 29.3496 8.92969 29.3496 8.67969C29.3496 8.42578 29.2891 8.20898 29.168 8.0293C29.0469 7.8457 28.8887 7.69531 28.6934 7.57812C28.3105 7.34766 27.8438 7.23242 27.293 7.23242C26.4531 7.23242 25.8613 7.48242 25.5176 7.98242ZM31.7168 8.03516L36.2109 2.70312H37.2949V8.02344H38.9355V9.00781H37.2949V11H36.2109V9.00781H32.0332L31.7168 8.03516ZM36.2109 8.02344V4.02148L32.918 8.02344H36.2109ZM40.6699 6.14258H46.0723V7.04492H40.6699V6.14258ZM40.6699 8.48633H46.0723V9.38867H40.6699V8.48633ZM47.7656 3.13672C48.5859 2.76953 49.4512 2.58594 50.3613 2.58594C51.4863 2.58594 52.2578 2.86719 52.6758 3.42969C52.8281 3.63672 52.9043 3.87891 52.9043 4.15625C52.9043 4.43359 52.8574 4.67383 52.7637 4.87695C52.6738 5.07617 52.5547 5.25977 52.4062 5.42773C52.2578 5.5957 52.0898 5.75391 51.9023 5.90234L51.3516 6.33594C50.8711 6.71094 50.5586 7.00586 50.4141 7.2207C50.1289 7.6543 50.0391 8.11328 50.1445 8.59766L49.1953 8.78516C49.043 7.92969 49.2441 7.19141 49.7988 6.57031C50.0645 6.27344 50.3438 6.00977 50.6367 5.7793C50.9336 5.54492 51.1523 5.35938 51.293 5.22266C51.6016 4.92188 51.7559 4.63867 51.7559 4.37305C51.7559 3.83008 51.2559 3.55859 50.2559 3.55859C49.791 3.55859 49.207 3.66016 48.5039 3.86328C48.3125 3.91797 48.1523 3.97266 48.0234 4.02734L47.7656 3.13672ZM49.8691 11.0762C49.6504 11.0762 49.4746 11.0098 49.3418 10.877C49.209 10.7441 49.1426 10.5684 49.1426 10.3496C49.1426 10.1309 49.209 9.95703 49.3418 9.82812C49.4746 9.69531 49.6504 9.62891 49.8691 9.62891C50.0879 9.62891 50.2637 9.69531 50.3965 9.82812C50.5293 9.95703 50.5957 10.1309 50.5957 10.3496C50.5957 10.5684 50.5293 10.7441 50.3965 10.877C50.2637 11.0098 50.0879 11.0762 49.8691 11.0762Z" fill="black"/>
<path d="M11.8672 30.0156L14.0645 28.1172C15.4941 26.8711 16.209 25.875 16.209 25.1289C16.209 24.5859 16.0625 24.1914 15.7695 23.9453C15.4805 23.6953 15.0332 23.5703 14.4277 23.5703C13.9355 23.5703 13.3438 23.707 12.6523 23.9805C12.4805 24.0469 12.3457 24.1055 12.248 24.1562L11.9492 23.2246C12.4766 22.9551 13.1328 22.7617 13.918 22.6445C14.168 22.6055 14.4473 22.5859 14.7559 22.5859C15.0645 22.5859 15.3867 22.6426 15.7227 22.7559C16.0625 22.8691 16.3535 23.0312 16.5957 23.2422C17.1035 23.6836 17.3574 24.2891 17.3574 25.0586C17.3574 26.1094 16.6172 27.2578 15.1367 28.5039L13.3906 29.9746L17.5742 29.9688V31H11.8672V30.0156ZM24.7109 27.2676C23.9375 27.709 23.0742 27.9297 22.1211 27.9297C21.2695 27.9297 20.5762 27.7266 20.041 27.3203C19.4629 26.8906 19.1738 26.2832 19.1738 25.498C19.1738 24.6387 19.498 23.9336 20.1465 23.3828C20.7754 22.8516 21.543 22.5859 22.4492 22.5859C23.5312 22.5859 24.3848 22.918 25.0098 23.582C25.627 24.2383 25.9355 25.1191 25.9355 26.2246C25.9355 28.5176 25.1758 30.0195 23.6562 30.7305C23.0508 31.0156 22.3633 31.1445 21.5938 31.1172C20.9062 31.0898 20.2441 30.9375 19.6074 30.6602L19.8887 29.7285C21.0957 30.2129 22.123 30.2891 22.9707 29.957C23.9199 29.582 24.5 28.6855 24.7109 27.2676ZM24.7871 26.0781C24.7871 25.3242 24.5684 24.7168 24.1309 24.2559C23.6855 23.791 23.0898 23.5586 22.3438 23.5586C21.7695 23.5586 21.2949 23.7148 20.9199 24.0273C20.5215 24.3594 20.3223 24.791 20.3223 25.3223C20.3223 25.8262 20.5098 26.2266 20.8848 26.5234C21.2402 26.8047 21.6875 26.9453 22.2266 26.9453C22.9609 26.9453 23.6504 26.7852 24.2949 26.4648C24.4863 26.3711 24.6504 26.2754 24.7871 26.1777V26.0781Z" fill="black"/>
<path d="M151.867 30.0156L154.064 28.1172C155.494 26.8711 156.209 25.875 156.209 25.1289C156.209 24.5859 156.062 24.1914 155.77 23.9453C155.48 23.6953 155.033 23.5703 154.428 23.5703C153.936 23.5703 153.344 23.707 152.652 23.9805C152.48 24.0469 152.346 24.1055 152.248 24.1562L151.949 23.2246C152.477 22.9551 153.133 22.7617 153.918 22.6445C154.168 22.6055 154.447 22.5859 154.756 22.5859C155.064 22.5859 155.387 22.6426 155.723 22.7559C156.062 22.8691 156.354 23.0312 156.596 23.2422C157.104 23.6836 157.357 24.2891 157.357 25.0586C157.357 26.1094 156.617 27.2578 155.137 28.5039L153.391 29.9746L157.574 29.9688V31H151.867V30.0156ZM164.711 27.2676C163.938 27.709 163.074 27.9297 162.121 27.9297C161.27 27.9297 160.576 27.7266 160.041 27.3203C159.463 26.8906 159.174 26.2832 159.174 25.498C159.174 24.6387 159.498 23.9336 160.146 23.3828C160.775 22.8516 161.543 22.5859 162.449 22.5859C163.531 22.5859 164.385 22.918 165.01 23.582C165.627 24.2383 165.936 25.1191 165.936 26.2246C165.936 28.5176 165.176 30.0195 163.656 30.7305C163.051 31.0156 162.363 31.1445 161.594 31.1172C160.906 31.0898 160.244 30.9375 159.607 30.6602L159.889 29.7285C161.096 30.2129 162.123 30.2891 162.971 29.957C163.92 29.582 164.5 28.6855 164.711 27.2676ZM164.787 26.0781C164.787 25.3242 164.568 24.7168 164.131 24.2559C163.686 23.791 163.09 23.5586 162.344 23.5586C161.77 23.5586 161.295 23.7148 160.92 24.0273C160.521 24.3594 160.322 24.791 160.322 25.3223C160.322 25.8262 160.51 26.2266 160.885 26.5234C161.24 26.8047 161.688 26.9453 162.227 26.9453C162.961 26.9453 163.65 26.7852 164.295 26.4648C164.486 26.3711 164.65 26.2754 164.787 26.1777V26.0781Z" fill="black"/>
<path d="M308.867 30.0156L311.064 28.1172C312.494 26.8711 313.209 25.875 313.209 25.1289C313.209 24.5859 313.062 24.1914 312.77 23.9453C312.48 23.6953 312.033 23.5703 311.428 23.5703C310.936 23.5703 310.344 23.707 309.652 23.9805C309.48 24.0469 309.346 24.1055 309.248 24.1562L308.949 23.2246C309.477 22.9551 310.133 22.7617 310.918 22.6445C311.168 22.6055 311.447 22.5859 311.756 22.5859C312.064 22.5859 312.387 22.6426 312.723 22.7559C313.062 22.8691 313.354 23.0312 313.596 23.2422C314.104 23.6836 314.357 24.2891 314.357 25.0586C314.357 26.1094 313.617 27.2578 312.137 28.5039L310.391 29.9746L314.574 29.9688V31H308.867V30.0156ZM321.711 27.2676C320.938 27.709 320.074 27.9297 319.121 27.9297C318.27 27.9297 317.576 27.7266 317.041 27.3203C316.463 26.8906 316.174 26.2832 316.174 25.498C316.174 24.6387 316.498 23.9336 317.146 23.3828C317.775 22.8516 318.543 22.5859 319.449 22.5859C320.531 22.5859 321.385 22.918 322.01 23.582C322.627 24.2383 322.936 25.1191 322.936 26.2246C322.936 28.5176 322.176 30.0195 320.656 30.7305C320.051 31.0156 319.363 31.1445 318.594 31.1172C317.906 31.0898 317.244 30.9375 316.607 30.6602L316.889 29.7285C318.096 30.2129 319.123 30.2891 319.971 29.957C320.92 29.582 321.5 28.6855 321.711 27.2676ZM321.787 26.0781C321.787 25.3242 321.568 24.7168 321.131 24.2559C320.686 23.791 320.09 23.5586 319.344 23.5586C318.77 23.5586 318.295 23.7148 317.92 24.0273C317.521 24.3594 317.322 24.791 317.322 25.3223C317.322 25.8262 317.51 26.2266 317.885 26.5234C318.24 26.8047 318.688 26.9453 319.227 26.9453C319.961 26.9453 320.65 26.7852 321.295 26.4648C321.486 26.3711 321.65 26.2754 321.787 26.1777V26.0781Z" fill="black"/>
<path d="M154.836 10.752L152.639 11.9941L152.322 11.0508L154.836 9.70312H155.92V18H154.836V10.752Z" fill="black"/>
<path d="M311.836 10.752L309.639 11.9941L309.322 11.0508L311.836 9.70312H312.92V18H311.836V10.752Z" fill="black"/>
<path d="M304.836 51.752L302.639 52.9941L302.322 52.0508L304.836 50.7031H305.92V59H304.836V51.752Z" fill="black"/>
<path d="M160.963 54.2305C161.443 54.2539 161.822 54.2656 162.1 54.2656C162.377 54.2656 162.643 54.2402 162.896 54.1895C163.15 54.1387 163.375 54.0566 163.57 53.9434C164.004 53.6934 164.221 53.3164 164.221 52.8125C164.221 52.3984 164.043 52.082 163.688 51.8633C163.371 51.668 162.971 51.5703 162.486 51.5703C161.939 51.5703 161.365 51.6797 160.764 51.8984C160.588 51.9648 160.436 52.0312 160.307 52.0977L160.008 51.166C160.523 50.9082 161.186 50.7305 161.994 50.6328C162.232 50.6016 162.49 50.5859 162.768 50.5859C163.049 50.5859 163.352 50.6328 163.676 50.7266C164.004 50.8164 164.293 50.9531 164.543 51.1367C165.094 51.5352 165.369 52.0703 165.369 52.7422C165.369 53.375 165.113 53.8926 164.602 54.2949C164.43 54.4277 164.23 54.5332 164.004 54.6113L163.998 54.6641C165.092 54.9492 165.639 55.6016 165.639 56.6211C165.639 57.3789 165.293 57.9941 164.602 58.4668C163.969 58.9004 163.225 59.1172 162.369 59.1172C161.248 59.1172 160.344 58.9043 159.656 58.4785L159.967 57.5059C160.467 57.7949 161.09 57.9883 161.836 58.0859C162.074 58.1172 162.311 58.1328 162.545 58.1328C162.779 58.1328 163.012 58.1016 163.242 58.0391C163.477 57.9766 163.684 57.8848 163.863 57.7637C164.266 57.4941 164.467 57.1309 164.467 56.6738C164.467 56.1035 164.121 55.6953 163.43 55.4492C162.789 55.2266 161.967 55.1738 160.963 55.291V54.2305Z" fill="black"/>
<path d="M317.963 54.2305C318.443 54.2539 318.822 54.2656 319.1 54.2656C319.377 54.2656 319.643 54.2402 319.896 54.1895C320.15 54.1387 320.375 54.0566 320.57 53.9434C321.004 53.6934 321.221 53.3164 321.221 52.8125C321.221 52.3984 321.043 52.082 320.688 51.8633C320.371 51.668 319.971 51.5703 319.486 51.5703C318.939 51.5703 318.365 51.6797 317.764 51.8984C317.588 51.9648 317.436 52.0312 317.307 52.0977L317.008 51.166C317.523 50.9082 318.186 50.7305 318.994 50.6328C319.232 50.6016 319.49 50.5859 319.768 50.5859C320.049 50.5859 320.352 50.6328 320.676 50.7266C321.004 50.8164 321.293 50.9531 321.543 51.1367C322.094 51.5352 322.369 52.0703 322.369 52.7422C322.369 53.375 322.113 53.8926 321.602 54.2949C321.43 54.4277 321.23 54.5332 321.004 54.6113L320.998 54.6641C322.092 54.9492 322.639 55.6016 322.639 56.6211C322.639 57.3789 322.293 57.9941 321.602 58.4668C320.969 58.9004 320.225 59.1172 319.369 59.1172C318.248 59.1172 317.344 58.9043 316.656 58.4785L316.967 57.5059C317.467 57.7949 318.09 57.9883 318.836 58.0859C319.074 58.1172 319.311 58.1328 319.545 58.1328C319.779 58.1328 320.012 58.1016 320.242 58.0391C320.477 57.9766 320.684 57.8848 320.863 57.7637C321.266 57.4941 321.467 57.1309 321.467 56.6738C321.467 56.1035 321.121 55.6953 320.43 55.4492C319.789 55.2266 318.967 55.1738 317.963 55.291V54.2305Z" fill="black"/>
<path d="M311.836 51.752L309.639 52.9941L309.322 52.0508L311.836 50.7031H312.92V59H311.836V51.752Z" fill="black"/>
<path d="M4.21289 41.4023H6.36914V39.1406H7.45312V41.4023H9.61523V42.3867H7.45312V44.6484H6.36914V42.3867H4.21289V41.4023ZM12.4922 44.5195C12.2109 44.3164 11.9863 44.0625 11.8184 43.7578C11.6543 43.4492 11.5723 43.1348 11.5723 42.8145C11.5723 42.4902 11.6113 42.2246 11.6895 42.0176C11.7715 41.8066 11.8789 41.6133 12.0117 41.4375C12.293 41.0742 12.6426 40.8203 13.0605 40.6758V40.6406C12.7168 40.543 12.4258 40.332 12.1875 40.0078C11.9375 39.6719 11.8125 39.3105 11.8125 38.9238C11.8125 38.5332 11.8965 38.1973 12.0645 37.916C12.2324 37.6309 12.4531 37.3906 12.7266 37.1953C13.293 36.7891 13.9727 36.5859 14.7656 36.5859C15.5703 36.5859 16.2383 36.7734 16.7695 37.1484C17.3359 37.5547 17.6191 38.0977 17.6191 38.7773C17.6191 39.4023 17.3633 39.9102 16.8516 40.3008C16.6797 40.4297 16.4805 40.5332 16.2539 40.6113V40.6406C17.0352 40.8594 17.543 41.291 17.7773 41.9355C17.8516 42.1465 17.8887 42.3809 17.8887 42.6387C17.8887 42.8926 17.8457 43.1328 17.7598 43.3594C17.6738 43.5859 17.5547 43.793 17.4023 43.9805C17.2539 44.1641 17.0762 44.3262 16.8691 44.4668C16.666 44.6074 16.4453 44.7266 16.207 44.8242C15.7305 45.0195 15.25 45.1172 14.7656 45.1172C14.2812 45.1172 13.8516 45.0684 13.4766 44.9707C13.1055 44.8691 12.7773 44.7188 12.4922 44.5195ZM13.459 39.9258C13.6191 40.043 13.8105 40.1289 14.0332 40.1836C14.2559 40.2383 14.4824 40.2656 14.7129 40.2656C14.9473 40.2656 15.166 40.2324 15.3691 40.166C15.5723 40.0957 15.7559 39.998 15.9199 39.873C16.2871 39.5918 16.4707 39.25 16.4707 38.8477C16.4707 38.4336 16.293 38.1113 15.9375 37.8809C15.6172 37.6738 15.1914 37.5703 14.6602 37.5703C13.9258 37.5703 13.4082 37.7949 13.1074 38.2441C13.0059 38.3965 12.9551 38.5898 12.9551 38.8242C12.9551 39.0586 12.998 39.2715 13.084 39.4629C13.1738 39.6504 13.2988 39.8047 13.459 39.9258ZM12.8848 41.9824C12.7637 42.1582 12.7031 42.373 12.7031 42.627C12.7031 42.877 12.7598 43.0957 12.873 43.2832C12.9863 43.4707 13.1367 43.6289 13.3242 43.7578C13.7031 44.0078 14.1836 44.1328 14.7656 44.1328C15.6445 44.1328 16.2422 43.8652 16.5586 43.3301C16.6641 43.1465 16.7168 42.9297 16.7168 42.6797C16.7168 42.4258 16.6562 42.209 16.5352 42.0293C16.4141 41.8457 16.2559 41.6953 16.0605 41.5781C15.6777 41.3477 15.2109 41.2324 14.6602 41.2324C13.8203 41.2324 13.2285 41.4824 12.8848 41.9824ZM19.084 42.0352L23.5781 36.7031H24.6621V42.0234H26.3027V43.0078H24.6621V45H23.5781V43.0078H19.4004L19.084 42.0352ZM23.5781 42.0234V38.0215L20.2852 42.0234H23.5781Z" fill="black"/>
<path d="M144.213 41.4023H146.369V39.1406H147.453V41.4023H149.615V42.3867H147.453V44.6484H146.369V42.3867H144.213V41.4023ZM152.492 44.5195C152.211 44.3164 151.986 44.0625 151.818 43.7578C151.654 43.4492 151.572 43.1348 151.572 42.8145C151.572 42.4902 151.611 42.2246 151.689 42.0176C151.771 41.8066 151.879 41.6133 152.012 41.4375C152.293 41.0742 152.643 40.8203 153.061 40.6758V40.6406C152.717 40.543 152.426 40.332 152.188 40.0078C151.938 39.6719 151.812 39.3105 151.812 38.9238C151.812 38.5332 151.896 38.1973 152.064 37.916C152.232 37.6309 152.453 37.3906 152.727 37.1953C153.293 36.7891 153.973 36.5859 154.766 36.5859C155.57 36.5859 156.238 36.7734 156.77 37.1484C157.336 37.5547 157.619 38.0977 157.619 38.7773C157.619 39.4023 157.363 39.9102 156.852 40.3008C156.68 40.4297 156.48 40.5332 156.254 40.6113V40.6406C157.035 40.8594 157.543 41.291 157.777 41.9355C157.852 42.1465 157.889 42.3809 157.889 42.6387C157.889 42.8926 157.846 43.1328 157.76 43.3594C157.674 43.5859 157.555 43.793 157.402 43.9805C157.254 44.1641 157.076 44.3262 156.869 44.4668C156.666 44.6074 156.445 44.7266 156.207 44.8242C155.73 45.0195 155.25 45.1172 154.766 45.1172C154.281 45.1172 153.852 45.0684 153.477 44.9707C153.105 44.8691 152.777 44.7188 152.492 44.5195ZM153.459 39.9258C153.619 40.043 153.811 40.1289 154.033 40.1836C154.256 40.2383 154.482 40.2656 154.713 40.2656C154.947 40.2656 155.166 40.2324 155.369 40.166C155.572 40.0957 155.756 39.998 155.92 39.873C156.287 39.5918 156.471 39.25 156.471 38.8477C156.471 38.4336 156.293 38.1113 155.938 37.8809C155.617 37.6738 155.191 37.5703 154.66 37.5703C153.926 37.5703 153.408 37.7949 153.107 38.2441C153.006 38.3965 152.955 38.5898 152.955 38.8242C152.955 39.0586 152.998 39.2715 153.084 39.4629C153.174 39.6504 153.299 39.8047 153.459 39.9258ZM152.885 41.9824C152.764 42.1582 152.703 42.373 152.703 42.627C152.703 42.877 152.76 43.0957 152.873 43.2832C152.986 43.4707 153.137 43.6289 153.324 43.7578C153.703 44.0078 154.184 44.1328 154.766 44.1328C155.645 44.1328 156.242 43.8652 156.559 43.3301C156.664 43.1465 156.717 42.9297 156.717 42.6797C156.717 42.4258 156.656 42.209 156.535 42.0293C156.414 41.8457 156.256 41.6953 156.061 41.5781C155.678 41.3477 155.211 41.2324 154.66 41.2324C153.82 41.2324 153.229 41.4824 152.885 41.9824ZM159.084 42.0352L163.578 36.7031H164.662V42.0234H166.303V43.0078H164.662V45H163.578V43.0078H159.4L159.084 42.0352ZM163.578 42.0234V38.0215L160.285 42.0234H163.578Z" fill="black"/>
<path d="M301.213 41.4023H303.369V39.1406H304.453V41.4023H306.615V42.3867H304.453V44.6484H303.369V42.3867H301.213V41.4023ZM309.492 44.5195C309.211 44.3164 308.986 44.0625 308.818 43.7578C308.654 43.4492 308.572 43.1348 308.572 42.8145C308.572 42.4902 308.611 42.2246 308.689 42.0176C308.771 41.8066 308.879 41.6133 309.012 41.4375C309.293 41.0742 309.643 40.8203 310.061 40.6758V40.6406C309.717 40.543 309.426 40.332 309.188 40.0078C308.938 39.6719 308.812 39.3105 308.812 38.9238C308.812 38.5332 308.896 38.1973 309.064 37.916C309.232 37.6309 309.453 37.3906 309.727 37.1953C310.293 36.7891 310.973 36.5859 311.766 36.5859C312.57 36.5859 313.238 36.7734 313.77 37.1484C314.336 37.5547 314.619 38.0977 314.619 38.7773C314.619 39.4023 314.363 39.9102 313.852 40.3008C313.68 40.4297 313.48 40.5332 313.254 40.6113V40.6406C314.035 40.8594 314.543 41.291 314.777 41.9355C314.852 42.1465 314.889 42.3809 314.889 42.6387C314.889 42.8926 314.846 43.1328 314.76 43.3594C314.674 43.5859 314.555 43.793 314.402 43.9805C314.254 44.1641 314.076 44.3262 313.869 44.4668C313.666 44.6074 313.445 44.7266 313.207 44.8242C312.73 45.0195 312.25 45.1172 311.766 45.1172C311.281 45.1172 310.852 45.0684 310.477 44.9707C310.105 44.8691 309.777 44.7188 309.492 44.5195ZM310.459 39.9258C310.619 40.043 310.811 40.1289 311.033 40.1836C311.256 40.2383 311.482 40.2656 311.713 40.2656C311.947 40.2656 312.166 40.2324 312.369 40.166C312.572 40.0957 312.756 39.998 312.92 39.873C313.287 39.5918 313.471 39.25 313.471 38.8477C313.471 38.4336 313.293 38.1113 312.938 37.8809C312.617 37.6738 312.191 37.5703 311.66 37.5703C310.926 37.5703 310.408 37.7949 310.107 38.2441C310.006 38.3965 309.955 38.5898 309.955 38.8242C309.955 39.0586 309.998 39.2715 310.084 39.4629C310.174 39.6504 310.299 39.8047 310.459 39.9258ZM309.885 41.9824C309.764 42.1582 309.703 42.373 309.703 42.627C309.703 42.877 309.76 43.0957 309.873 43.2832C309.986 43.4707 310.137 43.6289 310.324 43.7578C310.703 44.0078 311.184 44.1328 311.766 44.1328C312.645 44.1328 313.242 43.8652 313.559 43.3301C313.664 43.1465 313.717 42.9297 313.717 42.6797C313.717 42.4258 313.656 42.209 313.535 42.0293C313.414 41.8457 313.256 41.6953 313.061 41.5781C312.678 41.3477 312.211 41.2324 311.66 41.2324C310.82 41.2324 310.229 41.4824 309.885 41.9824ZM316.084 42.0352L320.578 36.7031H321.662V42.0234H323.303V43.0078H321.662V45H320.578V43.0078H316.4L316.084 42.0352ZM320.578 42.0234V38.0215L317.285 42.0234H320.578Z" fill="black"/>
<line x1="28.5" y1="21" x2="28.5" y2="48" stroke="black"/>
<line x1="168.5" y1="21" x2="168.5" y2="48" stroke="black"/>
<line x1="325.5" y1="21" x2="325.5" y2="48" stroke="black"/>
<line x1="29" y1="48.5" x2="2" y2="48.5" stroke="black"/>
<line x1="169" y1="48.5" x2="142" y2="48.5" stroke="black"/>
<line x1="326" y1="48.5" x2="299" y2="48.5" stroke="black"/>
<path d="M70.3867 34.2676C69.6133 34.709 68.75 34.9297 67.7969 34.9297C66.9453 34.9297 66.252 34.7266 65.7168 34.3203C65.1387 33.8906 64.8496 33.2832 64.8496 32.498C64.8496 31.6387 65.1738 30.9336 65.8223 30.3828C66.4512 29.8516 67.2188 29.5859 68.125 29.5859C69.207 29.5859 70.0605 29.918 70.6855 30.582C71.3027 31.2383 71.6113 32.1191 71.6113 33.2246C71.6113 35.5176 70.8516 37.0195 69.332 37.7305C68.7266 38.0156 68.0391 38.1445 67.2695 38.1172C66.582 38.0898 65.9199 37.9375 65.2832 37.6602L65.5645 36.7285C66.7715 37.2129 67.7988 37.2891 68.6465 36.957C69.5957 36.582 70.1758 35.6855 70.3867 34.2676ZM70.4629 33.0781C70.4629 32.3242 70.2441 31.7168 69.8066 31.2559C69.3613 30.791 68.7656 30.5586 68.0195 30.5586C67.4453 30.5586 66.9707 30.7148 66.5957 31.0273C66.1973 31.3594 65.998 31.791 65.998 32.3223C65.998 32.8262 66.1855 33.2266 66.5605 33.5234C66.916 33.8047 67.3633 33.9453 67.9023 33.9453C68.6367 33.9453 69.3262 33.7852 69.9707 33.4648C70.1621 33.3711 70.3262 33.2754 70.4629 33.1777V33.0781ZM73.5215 34.4023H75.6777V32.1406H76.7617V34.4023H78.9238V35.3867H76.7617V37.6484H75.6777V35.3867H73.5215V34.4023ZM80.5879 35.0352L85.082 29.7031H86.166V35.0234H87.8066V36.0078H86.166V38H85.082V36.0078H80.9043L80.5879 35.0352ZM85.082 35.0234V31.0215L81.7891 35.0234H85.082ZM89.541 33.1426H94.9434V34.0449H89.541V33.1426ZM89.541 35.4863H94.9434V36.3887H89.541V35.4863ZM98.9922 30.752L96.7949 31.9941L96.4785 31.0508L98.9922 29.7031H100.076V38H98.9922V30.752ZM103.123 33.2305C103.604 33.2539 103.982 33.2656 104.26 33.2656C104.537 33.2656 104.803 33.2402 105.057 33.1895C105.311 33.1387 105.535 33.0566 105.73 32.9434C106.164 32.6934 106.381 32.3164 106.381 31.8125C106.381 31.3984 106.203 31.082 105.848 30.8633C105.531 30.668 105.131 30.5703 104.646 30.5703C104.1 30.5703 103.525 30.6797 102.924 30.8984C102.748 30.9648 102.596 31.0312 102.467 31.0977L102.168 30.166C102.684 29.9082 103.346 29.7305 104.154 29.6328C104.393 29.6016 104.65 29.5859 104.928 29.5859C105.209 29.5859 105.512 29.6328 105.836 29.7266C106.164 29.8164 106.453 29.9531 106.703 30.1367C107.254 30.5352 107.529 31.0703 107.529 31.7422C107.529 32.375 107.273 32.8926 106.762 33.2949C106.59 33.4277 106.391 33.5332 106.164 33.6113L106.158 33.6641C107.252 33.9492 107.799 34.6016 107.799 35.6211C107.799 36.3789 107.453 36.9941 106.762 37.4668C106.129 37.9004 105.385 38.1172 104.529 38.1172C103.408 38.1172 102.504 37.9043 101.816 37.4785L102.127 36.5059C102.627 36.7949 103.25 36.9883 103.996 37.0859C104.234 37.1172 104.471 37.1328 104.705 37.1328C104.939 37.1328 105.172 37.1016 105.402 37.0391C105.637 36.9766 105.844 36.8848 106.023 36.7637C106.426 36.4941 106.627 36.1309 106.627 35.6738C106.627 35.1035 106.281 34.6953 105.59 34.4492C104.949 34.2266 104.127 34.1738 103.123 34.291V33.2305Z" fill="black"/>
<path d="M208.836 30.752L206.639 31.9941L206.322 31.0508L208.836 29.7031H209.92V38H208.836V30.752ZM212.217 34.4023H214.373V32.1406H215.457V34.4023H217.619V35.3867H215.457V37.6484H214.373V35.3867H212.217V34.4023ZM219.699 37.0156L221.896 35.1172C223.326 33.8711 224.041 32.875 224.041 32.1289C224.041 31.5859 223.895 31.1914 223.602 30.9453C223.312 30.6953 222.865 30.5703 222.26 30.5703C221.768 30.5703 221.176 30.707 220.484 30.9805C220.312 31.0469 220.178 31.1055 220.08 31.1562L219.781 30.2246C220.309 29.9551 220.965 29.7617 221.75 29.6445C222 29.6055 222.279 29.5859 222.588 29.5859C222.896 29.5859 223.219 29.6426 223.555 29.7559C223.895 29.8691 224.186 30.0312 224.428 30.2422C224.936 30.6836 225.189 31.2891 225.189 32.0586C225.189 33.1094 224.449 34.2578 222.969 35.5039L221.223 36.9746L225.406 36.9688V38H219.699V37.0156ZM227.369 34.4023H229.525V32.1406H230.609V34.4023H232.771V35.3867H230.609V37.6484H229.525V35.3867H227.369V34.4023ZM235.648 37.5195C235.367 37.3164 235.143 37.0625 234.975 36.7578C234.811 36.4492 234.729 36.1348 234.729 35.8145C234.729 35.4902 234.768 35.2246 234.846 35.0176C234.928 34.8066 235.035 34.6133 235.168 34.4375C235.449 34.0742 235.799 33.8203 236.217 33.6758V33.6406C235.873 33.543 235.582 33.332 235.344 33.0078C235.094 32.6719 234.969 32.3105 234.969 31.9238C234.969 31.5332 235.053 31.1973 235.221 30.916C235.389 30.6309 235.609 30.3906 235.883 30.1953C236.449 29.7891 237.129 29.5859 237.922 29.5859C238.727 29.5859 239.395 29.7734 239.926 30.1484C240.492 30.5547 240.775 31.0977 240.775 31.7773C240.775 32.4023 240.52 32.9102 240.008 33.3008C239.836 33.4297 239.637 33.5332 239.41 33.6113V33.6406C240.191 33.8594 240.699 34.291 240.934 34.9355C241.008 35.1465 241.045 35.3809 241.045 35.6387C241.045 35.8926 241.002 36.1328 240.916 36.3594C240.83 36.5859 240.711 36.793 240.559 36.9805C240.41 37.1641 240.232 37.3262 240.025 37.4668C239.822 37.6074 239.602 37.7266 239.363 37.8242C238.887 38.0195 238.406 38.1172 237.922 38.1172C237.438 38.1172 237.008 38.0684 236.633 37.9707C236.262 37.8691 235.934 37.7188 235.648 37.5195ZM236.615 32.9258C236.775 33.043 236.967 33.1289 237.189 33.1836C237.412 33.2383 237.639 33.2656 237.869 33.2656C238.104 33.2656 238.322 33.2324 238.525 33.166C238.729 33.0957 238.912 32.998 239.076 32.873C239.443 32.5918 239.627 32.25 239.627 31.8477C239.627 31.4336 239.449 31.1113 239.094 30.8809C238.773 30.6738 238.348 30.5703 237.816 30.5703C237.082 30.5703 236.564 30.7949 236.264 31.2441C236.162 31.3965 236.111 31.5898 236.111 31.8242C236.111 32.0586 236.154 32.2715 236.24 32.4629C236.33 32.6504 236.455 32.8047 236.615 32.9258ZM236.041 34.9824C235.92 35.1582 235.859 35.373 235.859 35.627C235.859 35.877 235.916 36.0957 236.029 36.2832C236.143 36.4707 236.293 36.6289 236.48 36.7578C236.859 37.0078 237.34 37.1328 237.922 37.1328C238.801 37.1328 239.398 36.8652 239.715 36.3301C239.82 36.1465 239.873 35.9297 239.873 35.6797C239.873 35.4258 239.812 35.209 239.691 35.0293C239.57 34.8457 239.412 34.6953 239.217 34.5781C238.834 34.3477 238.367 34.2324 237.816 34.2324C236.977 34.2324 236.385 34.4824 236.041 34.9824ZM243.002 33.1426H248.404V34.0449H243.002V33.1426ZM243.002 35.4863H248.404V36.3887H243.002V35.4863ZM252.453 30.752L250.256 31.9941L249.939 31.0508L252.453 29.7031H253.537V38H252.453V30.752ZM257.457 30.752L255.26 31.9941L254.943 31.0508L257.457 29.7031H258.541V38H257.457V30.752Z" fill="black"/>
<path d="M54.7071 34.7071C55.0976 34.3166 55.0976 33.6834 54.7071 33.2929L48.3431 26.9289C47.9526 26.5384 47.3195 26.5384 46.9289 26.9289C46.5384 27.3195 46.5384 27.9526 46.9289 28.3431L52.5858 34L46.9289 39.6569C46.5384 40.0474 46.5384 40.6805 46.9289 41.0711C47.3195 41.4616 47.9526 41.4616 48.3431 41.0711L54.7071 34.7071ZM39 35H54V33H39V35Z" fill="#827373"/>
<path d="M132.707 34.7071C133.098 34.3166 133.098 33.6834 132.707 33.2929L126.343 26.9289C125.953 26.5384 125.319 26.5384 124.929 26.9289C124.538 27.3195 124.538 27.9526 124.929 28.3431L130.586 34L124.929 39.6569C124.538 40.0474 124.538 40.6805 124.929 41.0711C125.319 41.4616 125.953 41.4616 126.343 41.0711L132.707 34.7071ZM117 35H132V33H117V35Z" fill="#827373"/>
<path d="M195.707 34.7071C196.098 34.3166 196.098 33.6834 195.707 33.2929L189.343 26.9289C188.953 26.5384 188.319 26.5384 187.929 26.9289C187.538 27.3195 187.538 27.9526 187.929 28.3431L193.586 34L187.929 39.6569C187.538 40.0474 187.538 40.6805 187.929 41.0711C188.319 41.4616 188.953 41.4616 189.343 41.0711L195.707 34.7071ZM180 35H195V33H180V35Z" fill="#827373"/>
<path d="M286.707 34.7071C287.098 34.3166 287.098 33.6834 286.707 33.2929L280.343 26.9289C279.953 26.5384 279.319 26.5384 278.929 26.9289C278.538 27.3195 278.538 27.9526 278.929 28.3431L284.586 34L278.929 39.6569C278.538 40.0474 278.538 40.6805 278.929 41.0711C279.319 41.4616 279.953 41.4616 280.343 41.0711L286.707 34.7071ZM271 35H286V33H271V35Z" fill="#827373"/>
</svg>
