<svg width="54" height="43" viewBox="0 0 54 43" fill="none" xmlns="http://www.w3.org/2000/svg">
<path d="M4.66406 8.51953C4.38281 8.31641 4.1582 8.0625 3.99023 7.75781C3.82617 7.44922 3.74414 7.13477 3.74414 6.81445C3.74414 6.49023 3.7832 6.22461 3.86133 6.01758C3.94336 5.80664 4.05078 5.61328 4.18359 5.4375C4.46484 5.07422 4.81445 4.82031 5.23242 4.67578V4.64062C4.88867 4.54297 4.59766 4.33203 4.35938 4.00781C4.10938 3.67188 3.98438 3.31055 3.98438 2.92383C3.98438 2.5332 4.06836 2.19727 4.23633 1.91602C4.4043 1.63086 4.625 1.39062 4.89844 1.19531C5.46484 0.789063 6.14453 0.585938 6.9375 0.585938C7.74219 0.585938 8.41016 0.773438 8.94141 1.14844C9.50781 1.55469 9.79102 2.09766 9.79102 2.77734C9.79102 3.40234 9.53516 3.91016 9.02344 4.30078C8.85156 4.42969 8.65234 4.5332 8.42578 4.61133V4.64062C9.20703 4.85938 9.71484 5.29102 9.94922 5.93555C10.0234 6.14648 10.0605 6.38086 10.0605 6.63867C10.0605 6.89258 10.0176 7.13281 9.93164 7.35938C9.8457 7.58594 9.72656 7.79297 9.57422 7.98047C9.42578 8.16406 9.24805 8.32617 9.04102 8.4668C8.83789 8.60742 8.61719 8.72656 8.37891 8.82422C7.90234 9.01953 7.42188 9.11719 6.9375 9.11719C6.45312 9.11719 6.02344 9.06836 5.64844 8.9707C5.27734 8.86914 4.94922 8.71875 4.66406 8.51953ZM5.63086 3.92578C5.79102 4.04297 5.98242 4.12891 6.20508 4.18359C6.42773 4.23828 6.6543 4.26562 6.88477 4.26562C7.11914 4.26562 7.33789 4.23242 7.54102 4.16602C7.74414 4.0957 7.92773 3.99805 8.0918 3.87305C8.45898 3.5918 8.64258 3.25 8.64258 2.84766C8.64258 2.43359 8.46484 2.11133 8.10938 1.88086C7.78906 1.67383 7.36328 1.57031 6.83203 1.57031C6.09766 1.57031 5.58008 1.79492 5.2793 2.24414C5.17773 2.39648 5.12695 2.58984 5.12695 2.82422C5.12695 3.05859 5.16992 3.27148 5.25586 3.46289C5.3457 3.65039 5.4707 3.80469 5.63086 3.92578ZM5.05664 5.98242C4.93555 6.1582 4.875 6.37305 4.875 6.62695C4.875 6.87695 4.93164 7.0957 5.04492 7.2832C5.1582 7.4707 5.30859 7.62891 5.49609 7.75781C5.875 8.00781 6.35547 8.13281 6.9375 8.13281C7.81641 8.13281 8.41406 7.86523 8.73047 7.33008C8.83594 7.14648 8.88867 6.92969 8.88867 6.67969C8.88867 6.42578 8.82812 6.20898 8.70703 6.0293C8.58594 5.8457 8.42773 5.69531 8.23242 5.57812C7.84961 5.34766 7.38281 5.23242 6.83203 5.23242C5.99219 5.23242 5.40039 5.48242 5.05664 5.98242ZM11.2559 6.03516L15.75 0.703125H16.834V6.02344H18.4746V7.00781H16.834V9H15.75V7.00781H11.5723L11.2559 6.03516ZM15.75 6.02344V2.02148L12.457 6.02344H15.75ZM20.209 5.08008H24.4395V5.98242H20.209V5.08008ZM29.1504 4.81641L25.9277 0.703125H27.3516L29.8594 3.9082L32.3496 0.703125H33.6445L30.5098 4.73438L33.8555 9H32.4316L29.8008 5.64844L27.1992 9H25.9043L29.1504 4.81641ZM35.3262 4.14258H40.7285V5.04492H35.3262V4.14258ZM35.3262 6.48633H40.7285V7.38867H35.3262V6.48633ZM44.7773 1.75195L42.5801 2.99414L42.2637 2.05078L44.7773 0.703125H45.8613V9H44.7773V1.75195ZM47.8125 8.01562L50.0098 6.11719C51.4395 4.87109 52.1543 3.875 52.1543 3.12891C52.1543 2.58594 52.0078 2.19141 51.7148 1.94531C51.4258 1.69531 50.9785 1.57031 50.373 1.57031C49.8809 1.57031 49.2891 1.70703 48.5977 1.98047C48.4258 2.04688 48.291 2.10547 48.1934 2.15625L47.8945 1.22461C48.4219 0.955078 49.0781 0.761719 49.8633 0.644531C50.1133 0.605469 50.3926 0.585938 50.7012 0.585938C51.0098 0.585938 51.332 0.642578 51.668 0.755859C52.0078 0.869141 52.2988 1.03125 52.541 1.24219C53.0488 1.68359 53.3027 2.28906 53.3027 3.05859C53.3027 4.10938 52.5625 5.25781 51.082 6.50391L49.3359 7.97461L53.5195 7.96875V9H47.8125V8.01562Z" fill="black"/>
<path d="M1.66406 25.5195C1.38281 25.3164 1.1582 25.0625 0.990234 24.7578C0.826172 24.4492 0.744141 24.1348 0.744141 23.8145C0.744141 23.4902 0.783203 23.2246 0.861328 23.0176C0.943359 22.8066 1.05078 22.6133 1.18359 22.4375C1.46484 22.0742 1.81445 21.8203 2.23242 21.6758V21.6406C1.88867 21.543 1.59766 21.332 1.35938 21.0078C1.10938 20.6719 0.984375 20.3105 0.984375 19.9238C0.984375 19.5332 1.06836 19.1973 1.23633 18.916C1.4043 18.6309 1.625 18.3906 1.89844 18.1953C2.46484 17.7891 3.14453 17.5859 3.9375 17.5859C4.74219 17.5859 5.41016 17.7734 5.94141 18.1484C6.50781 18.5547 6.79102 19.0977 6.79102 19.7773C6.79102 20.4023 6.53516 20.9102 6.02344 21.3008C5.85156 21.4297 5.65234 21.5332 5.42578 21.6113V21.6406C6.20703 21.8594 6.71484 22.291 6.94922 22.9355C7.02344 23.1465 7.06055 23.3809 7.06055 23.6387C7.06055 23.8926 7.01758 24.1328 6.93164 24.3594C6.8457 24.5859 6.72656 24.793 6.57422 24.9805C6.42578 25.1641 6.24805 25.3262 6.04102 25.4668C5.83789 25.6074 5.61719 25.7266 5.37891 25.8242C4.90234 26.0195 4.42188 26.1172 3.9375 26.1172C3.45312 26.1172 3.02344 26.0684 2.64844 25.9707C2.27734 25.8691 1.94922 25.7188 1.66406 25.5195ZM2.63086 20.9258C2.79102 21.043 2.98242 21.1289 3.20508 21.1836C3.42773 21.2383 3.6543 21.2656 3.88477 21.2656C4.11914 21.2656 4.33789 21.2324 4.54102 21.166C4.74414 21.0957 4.92773 20.998 5.0918 20.873C5.45898 20.5918 5.64258 20.25 5.64258 19.8477C5.64258 19.4336 5.46484 19.1113 5.10938 18.8809C4.78906 18.6738 4.36328 18.5703 3.83203 18.5703C3.09766 18.5703 2.58008 18.7949 2.2793 19.2441C2.17773 19.3965 2.12695 19.5898 2.12695 19.8242C2.12695 20.0586 2.16992 20.2715 2.25586 20.4629C2.3457 20.6504 2.4707 20.8047 2.63086 20.9258ZM2.05664 22.9824C1.93555 23.1582 1.875 23.373 1.875 23.627C1.875 23.877 1.93164 24.0957 2.04492 24.2832C2.1582 24.4707 2.30859 24.6289 2.49609 24.7578C2.875 25.0078 3.35547 25.1328 3.9375 25.1328C4.81641 25.1328 5.41406 24.8652 5.73047 24.3301C5.83594 24.1465 5.88867 23.9297 5.88867 23.6797C5.88867 23.4258 5.82812 23.209 5.70703 23.0293C5.58594 22.8457 5.42773 22.6953 5.23242 22.5781C4.84961 22.3477 4.38281 22.2324 3.83203 22.2324C2.99219 22.2324 2.40039 22.4824 2.05664 22.9824ZM8.25586 23.0352L12.75 17.7031H13.834V23.0234H15.4746V24.0078H13.834V26H12.75V24.0078H8.57227L8.25586 23.0352ZM12.75 23.0234V19.0215L9.45703 23.0234H12.75ZM17.209 22.0801H21.4395V22.9824H17.209V22.0801ZM25.4883 18.752L23.291 19.9941L22.9746 19.0508L25.4883 17.7031H26.5723V26H25.4883V18.752ZM28.5234 25.0156L30.7207 23.1172C32.1504 21.8711 32.8652 20.875 32.8652 20.1289C32.8652 19.5859 32.7188 19.1914 32.4258 18.9453C32.1367 18.6953 31.6895 18.5703 31.084 18.5703C30.5918 18.5703 30 18.707 29.3086 18.9805C29.1367 19.0469 29.002 19.1055 28.9043 19.1562L28.6055 18.2246C29.1328 17.9551 29.7891 17.7617 30.5742 17.6445C30.8242 17.6055 31.1035 17.5859 31.4121 17.5859C31.7207 17.5859 32.043 17.6426 32.3789 17.7559C32.7188 17.8691 33.0098 18.0312 33.252 18.2422C33.7598 18.6836 34.0137 19.2891 34.0137 20.0586C34.0137 21.1094 33.2734 22.2578 31.793 23.5039L30.0469 24.9746L34.2305 24.9688V26H28.5234V25.0156ZM36.1934 21.1426H41.5957V22.0449H36.1934V21.1426ZM36.1934 23.4863H41.5957V24.3887H36.1934V23.4863ZM46.3066 21.8164L43.084 17.7031H44.5078L47.0156 20.9082L49.5059 17.7031H50.8008L47.666 21.7344L51.0117 26H49.5879L46.957 22.6484L44.3555 26H43.0605L46.3066 21.8164Z" fill="black"/>
<path d="M26.0156 35.6289C25.4023 35.668 24.8438 35.6875 24.3398 35.6875H21.3574V34.7031H27.1992V35.6875C26.5234 36.4023 25.8086 37.5352 25.0547 39.0859C24.293 40.668 23.8242 41.9727 23.6484 43H22.4473C22.709 41.7773 23.2227 40.3945 23.9883 38.8516C24.7031 37.4141 25.3789 36.3398 26.0156 35.6289ZM28.3477 42.0156L30.5449 40.1172C31.9746 38.8711 32.6895 37.875 32.6895 37.1289C32.6895 36.5859 32.543 36.1914 32.25 35.9453C31.9609 35.6953 31.5137 35.5703 30.9082 35.5703C30.416 35.5703 29.8242 35.707 29.1328 35.9805C28.9609 36.0469 28.8262 36.1055 28.7285 36.1562L28.4297 35.2246C28.957 34.9551 29.6133 34.7617 30.3984 34.6445C30.6484 34.6055 30.9277 34.5859 31.2363 34.5859C31.5449 34.5859 31.8672 34.6426 32.2031 34.7559C32.543 34.8691 32.834 35.0312 33.0762 35.2422C33.584 35.6836 33.8379 36.2891 33.8379 37.0586C33.8379 38.1094 33.0977 39.2578 31.6172 40.5039L29.8711 41.9746L34.0547 41.9688V43H28.3477V42.0156ZM36.0176 38.1426H41.4199V39.0449H36.0176V38.1426ZM36.0176 40.4863H41.4199V41.3887H36.0176V40.4863ZM46.1309 38.8164L42.9082 34.7031H44.332L46.8398 37.9082L49.3301 34.7031H50.625L47.4902 38.7344L50.8359 43H49.4121L46.7812 39.6484L44.1797 43H42.8848L46.1309 38.8164Z" fill="black"/>
</svg>
